# Blender 4.0.2
# www.blender.org
mtllib bed.mtl
o Cube
v 2.000000 0.100000 -3.500000
v 2.000000 -0.100000 -3.500000
v 2.000000 0.100000 3.500000
v 2.000000 -0.100000 3.500000
v -2.000000 0.100000 -3.500000
v -2.000000 -0.100000 -3.500000
v -2.000000 0.100000 3.500000
v -2.000000 -0.100000 3.500000
v -1.650000 -0.694209 -2.850000
v -1.650000 -0.094209 -2.850000
v -1.650000 -0.694209 -3.150000
v -1.650000 -0.094209 -3.150000
v -1.350000 -0.694209 -2.850000
v -1.350000 -0.094209 -2.850000
v -1.350000 -0.694209 -3.150000
v -1.350000 -0.094209 -3.150000
v 1.350000 -0.694209 -2.850000
v 1.350000 -0.094209 -2.850000
v 1.350000 -0.694209 -3.150000
v 1.350000 -0.094209 -3.150000
v 1.650000 -0.694209 -2.850000
v 1.650000 -0.094209 -2.850000
v 1.650000 -0.694209 -3.150000
v 1.650000 -0.094209 -3.150000
v 1.350000 -0.694209 3.150000
v 1.350000 -0.094209 3.150000
v 1.350000 -0.694209 2.850000
v 1.350000 -0.094209 2.850000
v 1.650000 -0.694209 3.150000
v 1.650000 -0.094209 3.150000
v 1.650000 -0.694209 2.850000
v 1.650000 -0.094209 2.850000
v -1.650000 -0.694209 3.150000
v -1.650000 -0.094209 3.150000
v -1.650000 -0.694209 2.850000
v -1.650000 -0.094209 2.850000
v -1.350000 -0.694209 3.150000
v -1.350000 -0.094209 3.150000
v -1.350000 -0.694209 2.850000
v -1.350000 -0.094209 2.850000
v 1.950000 0.741275 -3.450000
v 2.000000 0.141275 -3.500000
v 1.950000 0.741275 3.450000
v 2.000000 0.141275 3.500000
v -1.950000 0.741275 -3.450000
v -2.000000 0.141275 -3.500000
v -1.950000 0.741275 3.450000
v -2.000000 0.141275 3.500000
v -2.000000 0.141275 3.150000
v 1.950000 0.741275 3.150000
v -1.950000 0.741275 3.150000
v 2.000000 0.141275 3.150000
v -1.950000 0.741275 -3.135453
v 2.000000 0.141275 -3.135453
v -2.000000 0.141275 -3.135453
v 1.950000 0.741275 -3.135453
v 1.660920 0.141275 -3.500000
v 1.660920 0.741275 3.450000
v 1.660920 0.141275 3.500000
v 1.660920 0.741275 -3.450000
v 1.660920 0.141275 3.150000
v 1.660920 0.741275 3.150000
v 1.660920 0.741275 -3.135453
v 1.660920 0.141275 -3.135453
v -1.665564 0.141275 -3.500000
v -1.665564 0.741275 3.450000
v -1.665564 0.141275 3.150000
v -1.665564 0.141275 -3.135453
v -1.665564 0.141275 3.500000
v -1.665564 0.741275 -3.450000
v -1.665564 0.741275 3.150000
v -1.665564 0.741275 -3.135453
v 2.000000 0.562664 -3.500000
v -2.000000 0.562664 3.500000
v 2.000000 0.562664 3.500000
v -2.000000 0.562664 -3.500000
v 2.000000 0.562664 3.150000
v -2.000000 0.562664 3.150000
v 2.000000 0.562664 -3.135453
v -2.000000 0.562664 -3.135453
v 1.660920 0.562664 -3.500000
v 1.660920 0.562664 3.500000
v -1.665564 0.562664 -3.500000
v -1.665564 0.562664 3.500000
vn -0.0000 1.0000 -0.0000
vn -0.0000 -0.0000 1.0000
vn -1.0000 -0.0000 -0.0000
vn -0.0000 -1.0000 -0.0000
vn 1.0000 -0.0000 -0.0000
vn -0.0000 -0.0000 -1.0000
vn -0.0000 0.2696 0.9630
vn -0.9630 0.2696 -0.0000
vn 0.9630 0.2696 -0.0000
vn -0.0000 0.2696 -0.9630
vt 0.625000 0.500000
vt 0.875000 0.500000
vt 0.875000 0.750000
vt 0.625000 0.750000
vt 0.375000 0.750000
vt 0.625000 1.000000
vt 0.375000 1.000000
vt 0.375000 0.000000
vt 0.625000 0.000000
vt 0.625000 0.250000
vt 0.375000 0.250000
vt 0.125000 0.500000
vt 0.375000 0.500000
vt 0.125000 0.750000
vt 0.854098 0.737500
vt 0.875000 0.737500
vt 0.854098 0.750000
vt 0.550579 0.979098
vt 0.625000 0.979098
vt 0.550579 1.000000
vt 0.550579 0.236980
vt 0.625000 0.236980
vt 0.550579 0.250000
vt 0.353807 0.737500
vt 0.375000 0.737500
vt 0.353807 0.750000
vt 0.550579 0.737500
vt 0.625000 0.737500
vt 0.550579 0.750000
vt 0.550579 0.478807
vt 0.625000 0.478807
vt 0.550579 0.500000
vt 0.550579 0.513020
vt 0.625000 0.513020
vt 0.353807 0.513020
vt 0.375000 0.513020
vt 0.550579 0.000000
vt 0.625000 0.012500
vt 0.550579 0.012500
vt 0.854098 0.513020
vt 0.875000 0.513020
vt 0.854098 0.500000
vt 0.353807 0.500000
vt 0.145902 0.500000
vt 0.145902 0.513020
vt 0.646193 0.500000
vt 0.646193 0.513020
vt 0.646193 0.737500
vt 0.145902 0.737500
vt 0.550579 0.270902
vt 0.625000 0.270902
vt 0.145902 0.750000
vt 0.625000 0.771193
vt 0.550579 0.771193
vt 0.646193 0.750000
vt 0.125000 0.737500
vt 0.125000 0.513020
vt 0.375000 0.771193
vt 0.375000 0.979098
vt 0.375000 0.270902
vt 0.375000 0.478807
vt 0.375000 0.012500
vt 0.375000 0.236980
s 0
usemtl Bedframe
f 1/1/1 5/2/1 7/3/1 3/4/1
f 4/5/2 3/4/2 7/6/2 8/7/2
f 8/8/3 7/9/3 5/10/3 6/11/3
f 6/12/4 2/13/4 4/5/4 8/14/4
f 2/13/5 1/1/5 3/4/5 4/5/5
f 6/11/6 5/10/6 1/1/6 2/13/6
f 9/8/3 10/9/3 12/10/3 11/11/3
f 11/11/6 12/10/6 16/1/6 15/13/6
f 15/13/5 16/1/5 14/4/5 13/5/5
f 13/5/2 14/4/2 10/6/2 9/7/2
f 11/12/4 15/13/4 13/5/4 9/14/4
f 16/1/1 12/2/1 10/3/1 14/4/1
f 17/8/3 18/9/3 20/10/3 19/11/3
f 19/11/6 20/10/6 24/1/6 23/13/6
f 23/13/5 24/1/5 22/4/5 21/5/5
f 21/5/2 22/4/2 18/6/2 17/7/2
f 19/12/4 23/13/4 21/5/4 17/14/4
f 24/1/1 20/2/1 18/3/1 22/4/1
f 25/8/3 26/9/3 28/10/3 27/11/3
f 27/11/6 28/10/6 32/1/6 31/13/6
f 31/13/5 32/1/5 30/4/5 29/5/5
f 29/5/2 30/4/2 26/6/2 25/7/2
f 27/12/4 31/13/4 29/5/4 25/14/4
f 32/1/1 28/2/1 26/3/1 30/4/1
f 33/8/3 34/9/3 36/10/3 35/11/3
f 35/11/6 36/10/6 40/1/6 39/13/6
f 39/13/5 40/1/5 38/4/5 37/5/5
f 37/5/2 38/4/2 34/6/2 33/7/2
f 35/12/4 39/13/4 37/5/4 33/14/4
f 40/1/1 36/2/1 34/3/1 38/4/1
usemtl Matress
f 71/15/1 51/16/1 47/3/1 66/17/1
f 84/18/7 66/19/7 47/6/7 74/20/7
f 80/21/8 53/22/8 45/10/8 76/23/8
f 61/24/4 52/25/4 44/5/4 59/26/4
f 77/27/9 50/28/9 43/4/9 75/29/9
f 81/30/10 60/31/10 41/1/10 73/32/10
f 79/33/9 56/34/9 50/28/9 77/27/9
f 64/35/4 54/36/4 52/25/4 61/24/4
f 74/37/8 47/9/8 51/38/8 78/39/8
f 72/40/1 53/41/1 51/16/1 71/15/1
f 70/42/1 45/2/1 53/41/1 72/40/1
f 57/43/4 42/13/4 54/36/4 64/35/4
f 73/32/9 41/1/9 56/34/9 79/33/9
f 78/39/8 51/38/8 53/22/8 80/21/8
f 65/44/4 57/43/4 64/35/4 68/45/4
f 41/1/1 60/46/1 63/47/1 56/34/1
f 56/34/1 63/47/1 62/48/1 50/28/1
f 68/45/4 64/35/4 61/24/4 67/49/4
f 83/50/10 70/51/10 60/31/10 81/30/10
f 67/49/4 61/24/4 59/26/4 69/52/4
f 75/29/7 43/4/7 58/53/7 82/54/7
f 50/28/1 62/48/1 58/55/1 43/4/1
f 49/56/4 67/49/4 69/52/4 48/14/4
f 76/23/10 45/10/10 70/51/10 83/50/10
f 55/57/4 68/45/4 67/49/4 49/56/4
f 46/12/4 65/44/4 68/45/4 55/57/4
f 60/46/1 70/42/1 72/40/1 63/47/1
f 63/47/1 72/40/1 71/15/1 62/48/1
f 82/54/7 58/53/7 66/19/7 84/18/7
f 62/48/1 71/15/1 66/17/1 58/55/1
f 59/58/2 82/54/2 84/18/2 69/59/2
f 46/11/6 76/23/6 83/50/6 65/60/6
f 44/5/2 75/29/2 82/54/2 59/58/2
f 65/60/6 83/50/6 81/30/6 57/61/6
f 49/62/3 78/39/3 80/21/3 55/63/3
f 42/13/5 73/32/5 79/33/5 54/36/5
f 48/8/3 74/37/3 78/39/3 49/62/3
f 54/36/5 79/33/5 77/27/5 52/25/5
f 57/61/6 81/30/6 73/32/6 42/13/6
f 52/25/5 77/27/5 75/29/5 44/5/5
f 55/63/3 80/21/3 76/23/3 46/11/3
f 69/59/2 84/18/2 74/20/2 48/7/2
o Cube.001
v -1.998187 0.757930 3.594074
v -1.998187 0.794900 3.560455
v -1.998187 0.757930 -0.250340
v -1.998187 0.824813 -0.250340
v 2.044930 0.757930 3.594074
v 2.044930 0.794900 3.560455
v 2.044930 0.757930 -1.368304
v 2.044930 0.824813 -1.368304
v -2.054667 0.757930 -0.222995
v -2.054667 0.757930 3.594074
v -2.033592 0.795540 3.594074
v -2.033592 0.795540 -0.222995
v -1.998187 0.238718 -0.115575
v -1.998187 0.418223 3.594074
v -2.054667 0.238718 -0.088229
v -2.054667 0.418223 3.594074
v 2.086608 0.814915 -1.368304
v 2.102634 0.757930 -1.368304
v 2.102634 0.757930 3.594074
v 2.102634 0.794900 3.560455
v 2.044930 0.161652 3.594074
v 2.044930 0.161652 -1.368304
v 2.102634 0.161652 3.594074
v 2.102634 0.161652 -1.368304
v -1.998187 0.757930 3.543541
v -1.998187 0.824813 3.543541
v 2.044930 0.757930 3.528847
v 2.044930 0.824813 3.528847
v -2.054667 0.757930 3.543901
v -2.033592 0.795540 3.543901
v -1.998187 0.414541 3.545313
v -2.054667 0.414541 3.545672
v 2.102634 0.757930 3.528847
v 2.086608 0.814915 3.528847
v 2.044930 0.161652 3.528847
v 2.102634 0.161652 3.528847
v -1.998187 0.757930 3.543541
v 2.044930 0.757930 3.528847
v -1.998187 0.417808 3.543541
v -1.998187 0.417808 3.594074
v 2.044930 0.168670 3.594074
v 2.044930 0.168670 3.528847
vn 0.3287 0.3094 0.8923
vn -0.2665 -0.0000 -0.9638
vn -0.0000 0.6728 0.7398
vn -0.0036 -0.0000 -1.0000
vn 0.0014 0.6299 0.7767
vn -0.8724 0.4888 -0.0000
vn -0.6372 0.7707 -0.0000
vn -1.0000 -0.0000 -0.0000
vn -0.5336 0.1076 -0.8389
vn 0.0002 -0.9971 0.0756
vn -0.4244 -0.2275 -0.8765
vn -0.0000 -0.0000 1.0000
vn 1.0000 -0.0000 -0.0000
vn 0.9833 0.1182 -0.1383
vn 0.0789 0.7919 0.6055
vn -0.0000 -0.0000 -1.0000
vn -0.0000 -1.0000 -0.0000
vn 0.2311 0.9729 -0.0000
vn 0.9627 0.2707 -0.0000
vn 0.0118 -0.9988 0.0481
vn -0.1713 0.8998 0.4012
vn -0.0000 1.0000 -0.0000
vn -0.0615 -0.9981 -0.0000
vt 0.375000 1.000000
vt 0.625000 1.000000
vt 0.375000 0.250000
vt 0.625000 0.250000
vt 0.625000 0.500000
vt 0.375000 0.500000
vt 0.625000 0.750000
vt 0.375000 0.750000
vt 0.125000 0.746714
vt 0.375000 0.746714
vt 0.625000 0.746714
vt 0.875000 0.746714
vt 0.875000 0.750000
vt 0.375000 0.003286
vt 0.625000 0.003286
vt 0.875000 0.500000
vt 0.875000 0.746714
vt 0.375000 0.003286
vt 0.125000 0.746714
vt 0.125000 0.750000
vt 0.625000 0.746714
vt 0.375000 0.746714
vt 0.125000 0.500000
vt 0.375000 0.000000
vt 0.625000 0.000000
s 0
usemtl Cover
f 85/64/11 86/65/11 95/65/11 94/64/11
f 87/66/12 88/67/12 92/68/12 91/69/12
f 90/70/13 89/71/13 103/71/13 104/70/13
f 89/71/13 90/70/13 86/65/13 85/64/13
f 109/72/14 111/73/14 126/73/14 123/72/14
f 112/74/15 110/75/15 86/76/15 90/70/15
f 113/77/16 114/78/16 96/67/16 93/66/16
f 110/75/17 88/79/17 96/79/17 114/80/17
f 113/77/18 93/66/18 99/66/18 116/81/18
f 88/67/19 87/66/19 93/66/19 96/67/19
f 115/82/20 98/83/20 100/83/20 116/82/20
f 93/66/21 87/66/21 97/66/21 99/66/21
f 85/64/22 94/64/22 100/64/22 98/64/22
f 109/72/23 85/83/23 98/83/23 115/82/23
f 117/73/24 118/84/24 104/70/24 103/71/24
f 111/73/18 91/69/18 106/69/18 119/85/18
f 112/74/25 90/70/25 104/70/25 118/84/25
f 91/69/26 92/68/26 101/68/26 102/69/26
f 119/85/27 106/69/27 108/69/27 120/73/27
f 117/73/23 103/71/23 107/71/23 120/73/23
f 91/69/26 102/69/26 108/69/26 106/69/26
f 103/71/22 89/71/22 105/71/22 107/71/22
f 102/69/23 117/73/23 120/73/23 108/69/23
f 105/71/27 119/85/27 120/73/27 107/71/27
f 92/68/28 112/74/28 118/84/28 101/68/28
f 89/71/18 111/73/18 119/85/18 105/71/18
f 102/69/29 101/68/29 118/84/29 117/73/29
f 87/86/23 109/72/23 115/82/23 97/86/23
f 97/86/30 115/82/30 116/82/30 99/86/30
f 94/87/18 113/77/18 116/81/18 100/87/18
f 86/76/31 110/75/31 114/80/31 95/76/31
f 94/87/16 95/88/16 114/78/16 113/77/16
f 92/68/32 88/79/32 110/75/32 112/74/32
f 87/86/27 91/69/27 111/73/27 109/72/27
f 109/72/32 111/73/32 122/73/32 121/72/32
f 123/72/33 126/73/33 125/71/33 124/83/33
f 89/71/22 85/64/22 124/64/22 125/71/22
f 111/73/23 89/71/23 125/71/23 126/73/23
f 85/83/18 109/72/18 123/72/18 124/83/18
