# Blender 4.0.2
# www.blender.org
mtllib book.mtl
o Book
v 0.500000 -0.036877 -0.419781
v 0.500000 -0.076877 -0.419781
v 0.500000 -0.036877 0.380219
v 0.500000 -0.076877 0.380219
v -0.500000 -0.036877 -0.419781
v -0.500000 -0.076877 -0.419781
v -0.500000 -0.036877 0.380219
v -0.500000 -0.076877 0.380219
v 0.458241 -0.036877 0.378283
v -0.458241 -0.036877 0.378283
v 0.458241 -0.036877 -0.354902
v -0.458241 -0.036877 -0.354902
v 0.458241 0.042540 0.378283
v -0.458241 0.042540 0.378283
v 0.458241 0.042540 -0.354902
v -0.458241 0.042540 -0.354902
v -0.500000 -0.065222 0.408758
v -0.500000 -0.036877 0.418431
v 0.500000 -0.036877 0.418431
v 0.500000 -0.065222 0.408758
v 0.500000 0.072513 0.380219
v -0.500000 0.072513 0.380219
v 0.500000 0.063355 0.408758
v -0.500000 0.063355 0.408758
v -0.500000 0.040425 0.418431
v -0.500000 0.040425 0.380219
v 0.500000 0.040425 0.418431
v 0.500000 0.040425 0.380219
v -0.500000 0.040425 0.418431
v -0.500000 0.040425 0.380219
v 0.500000 0.040425 0.418431
v 0.500000 0.040425 0.380219
v 0.500000 0.072513 -0.416513
v -0.500000 0.072513 -0.416513
v -0.500000 0.040425 -0.416513
v 0.500000 0.040425 -0.416513
vn -0.0000 1.0000 -0.0000
vn -0.0000 -0.9258 0.3781
vn -1.0000 -0.0000 -0.0000
vn -0.0000 -1.0000 -0.0000
vn 1.0000 -0.0000 -0.0000
vn -0.0000 -0.0000 -1.0000
vn -0.0000 -0.0000 1.0000
vn -0.0000 -0.3230 0.9464
vn -0.0000 0.9522 0.3055
vn -0.0000 0.3887 0.9214
vt 0.625000 0.500000
vt 0.625000 0.250000
vt 0.125000 0.750000
vt 0.375000 0.750000
vt 0.375000 0.000000
vt 0.625000 0.000000
vt 0.375000 0.250000
vt 0.125000 0.500000
vt 0.375000 0.500000
vt 0.625000 0.750000
vt 0.625000 1.000000
vt 0.875000 0.500000
vt 0.875000 0.750000
vt 0.375000 1.000000
s 0
usemtl Paper.001
f 15/1/1 16/12/1 14/13/1 13/10/1
f 11/1/6 12/2/6 16/2/6 15/1/6
f 9/10/5 11/1/5 15/1/5 13/10/5
f 12/2/3 10/6/3 14/6/3 16/2/3
usemtl Cover.001
f 1/1/1 5/2/1 12/2/1 11/1/1
f 8/3/2 4/4/2 20/4/2 17/3/2
f 8/5/3 7/6/3 5/2/3 6/7/3
f 6/8/4 2/9/4 4/4/4 8/3/4
f 2/9/5 1/1/5 3/10/5 4/4/5
f 6/7/6 5/2/6 1/1/6 2/9/6
f 10/11/7 9/10/7 13/10/7 14/11/7
f 7/11/1 3/10/1 9/10/1 10/11/1
f 5/2/1 7/6/1 10/6/1 12/2/1
f 3/10/1 1/1/1 11/1/1 9/10/1
f 20/4/8 19/10/8 18/11/8 17/14/8
f 26/6/3 25/6/3 24/6/3 22/6/3
f 4/4/5 3/10/5 19/10/5 20/4/5
f 7/6/3 8/5/3 17/5/3 18/6/3
f 21/10/9 22/11/9 24/11/9 23/10/9
f 25/11/10 27/10/10 23/10/10 24/11/10
f 22/11/1 21/10/1 33/10/1 34/11/1
f 27/10/5 28/10/5 21/10/5 23/10/5
f 19/10/5 3/10/5 28/10/5 27/10/5
f 3/10/6 7/11/6 26/11/6 28/10/6
f 18/11/7 19/10/7 27/10/7 25/11/7
f 7/6/3 18/6/3 25/6/3 26/6/3
f 25/11/1 27/10/1 31/10/1 29/11/1
f 27/10/1 28/10/1 32/10/1 31/10/1
f 26/6/1 25/6/1 29/6/1 30/6/1
f 28/10/1 26/11/1 30/11/1 32/10/1
f 36/10/6 35/11/6 34/11/6 33/10/6
f 21/10/5 28/10/5 36/10/5 33/10/5
f 26/6/3 22/6/3 34/6/3 35/6/3
f 28/10/4 26/11/4 35/11/4 36/10/4
