# Blender 4.0.2
# www.blender.org
mtllib couch.mtl
o Cube
v -3.077918 -0.260999 -5.069539
v -3.077918 -0.260999 4.930461
v -5.077918 -0.260999 -5.069539
v -5.077918 -0.260999 -5.069539
v -5.077918 -0.260999 5.365949
v -5.077918 -0.260999 4.930461
v -5.077918 -0.260999 -3.069539
v -3.077918 0.139001 -3.069539
v -3.077918 -0.260999 -3.069539
v -5.077918 -0.260999 2.968045
v -3.077918 0.139001 2.968045
v -5.077918 -0.260999 4.930461
v -3.077918 -0.260999 2.968045
v -3.077918 -0.260999 4.930461
v -3.077918 0.139001 2.968045
v -3.077918 -0.260999 2.968045
v 0.900266 -0.260999 2.968045
v 0.900266 0.139001 2.968045
v 0.900266 -0.260999 4.930461
v 0.900266 0.139001 4.930461
v -3.077918 -0.260999 -5.069539
v -3.077918 -0.260999 -3.069539
v -3.077918 0.139001 -3.069539
v -1.079968 0.139001 -5.069539
v -1.079968 -0.260999 -5.069539
v -1.079968 -0.260999 -3.069539
v -1.079968 0.139001 -3.069539
v -3.077918 0.293902 4.930461
v -5.077918 0.293902 4.930461
v -3.177918 0.293902 2.968045
v -5.077918 0.293902 -3.069539
v -5.077918 0.293902 -5.069539
v -3.077918 0.293902 -5.069539
v -3.177918 0.293902 -3.069539
v -5.077918 0.293902 2.968045
v -3.077918 0.293902 3.068044
v -3.077918 0.293902 4.930461
v 0.800266 0.293902 3.068044
v 0.800266 0.293902 4.930461
v -3.077918 0.293902 -5.069539
v -3.077918 0.293902 -3.169539
v -1.179968 0.293902 -5.069539
v -1.179968 0.293902 -3.169539
v -5.506561 -0.260999 2.968045
v -5.506561 -0.260999 4.930461
v -5.506561 0.139001 4.930461
v -5.506561 0.139001 -5.069539
v -5.506561 -0.260999 -5.069539
v -5.506561 0.139001 -3.069539
v -5.506561 -0.260999 -3.069539
v -5.506561 0.139001 2.968045
v -5.506561 0.293902 4.930461
v -5.506561 0.293902 -3.069539
v -5.506561 0.293902 -5.069539
v -5.506561 0.293902 2.968045
v -3.077918 -0.260999 -5.069539
v -3.077918 -0.260999 4.930461
v -5.077918 0.293902 4.930461
v -3.077918 0.293902 4.930461
v -3.077918 -0.260999 4.930461
v 0.900266 0.139001 4.930461
v 0.900266 -0.260999 4.930461
v 0.800266 0.293902 4.930461
v -3.077918 0.293902 4.930461
v -5.506561 -0.260999 4.930461
v -5.506561 0.139001 4.930461
v -5.506561 0.293902 4.930461
v -3.077918 -0.260999 -5.069539
v -3.077918 0.139001 5.365949
v -3.077918 -0.260999 5.365949
v -5.077918 0.293902 5.365949
v -3.077918 0.293902 5.365949
v -3.077918 0.139001 5.365949
v -3.077918 -0.260999 5.365949
v 0.900266 0.139001 5.365949
v 0.900266 -0.260999 5.365949
v 0.800266 0.293902 5.365949
v -3.077918 0.293902 5.365949
v -5.506561 -0.260999 5.365949
v -5.506561 0.139001 5.365949
v -5.506561 0.293902 5.365949
v -5.077918 -0.260999 -5.069539
v -5.077918 -0.260999 -5.069539
v -5.506561 -0.260999 -5.069539
v -5.506561 0.139001 -5.069539
v -5.077918 0.293902 -5.069539
v -5.506561 0.293902 -5.069539
v -3.077918 -0.260999 -5.069539
v -1.079968 0.139001 -5.069539
v -1.079968 -0.260999 -5.069539
v -3.077918 0.293902 -5.069539
v -1.179968 0.293902 -5.069539
v -3.077918 0.293902 -5.069539
v -5.077918 -0.260999 5.365949
v -3.077918 -0.260999 -5.069539
v -3.077918 0.139001 5.365949
v -3.077918 -0.260999 5.365949
v -5.077918 0.293902 5.365949
v -3.077918 0.293902 5.365949
v -3.077918 0.139001 5.365949
v -3.077918 -0.260999 5.365949
v 0.900266 0.139001 5.365949
v 0.900266 -0.260999 5.365949
v 0.800266 0.293902 5.365949
v -3.077918 0.293902 5.365949
v -5.506561 -0.260999 5.365949
v -5.506561 0.139001 5.365949
v -5.506561 0.293902 5.365949
v -3.077918 -0.260999 -5.464200
v -5.506561 -0.260999 -5.069539
v -5.506561 0.139001 -5.069539
v -5.077918 0.293902 -5.069539
v -5.506561 0.293902 -5.069539
v -3.077918 -0.260999 -5.069539
v -1.079968 0.139001 -5.069539
v -1.079968 -0.260999 -5.069539
v -3.077918 0.293902 -5.069539
v -1.179968 0.293902 -5.069539
v -3.077918 0.293902 -5.069539
v -5.077918 -0.260999 5.365949
v -5.077918 0.139001 5.365949
v -3.077918 0.139001 5.365949
v -3.077918 -0.260999 5.365949
v -5.077918 0.293902 5.365949
v -3.077918 0.293902 5.365949
v -3.077918 0.139001 5.365949
v -3.077918 -0.260999 5.365949
v 0.900266 0.139001 5.365949
v 0.900266 -0.260999 5.365949
v 0.800266 0.293902 5.365949
v -3.077918 0.293902 5.365949
v -5.506561 -0.260999 5.365949
v -5.506561 0.139001 5.365949
v -5.506561 0.293902 5.365949
v -5.506561 -0.260999 -5.069539
v -5.506561 0.139001 -5.069539
v -5.077918 0.293902 -5.069539
v -5.506561 0.293902 -5.069539
v -3.077918 -0.260999 -5.069539
v -1.079968 0.139001 -5.069539
v -1.079968 -0.260999 -5.069539
v -3.077918 0.293902 -5.069539
v -1.179968 0.293902 -5.069539
v -3.077918 0.293902 -5.069539
v -5.077918 -0.260999 -5.464200
v -3.077918 0.139001 -5.464200
v -5.077918 0.139001 -5.464200
v -5.506561 -0.260999 -5.464200
v -5.506561 0.139001 -5.464200
v -5.077918 0.293902 -5.464200
v -5.506561 0.293902 -5.464200
v -3.077918 0.139001 -5.464200
v -3.077918 -0.260999 -5.464200
v -1.079968 0.139001 -5.464200
v -1.079968 -0.260999 -5.464200
v -3.077918 0.293902 -5.464200
v -1.179968 0.293902 -5.464200
v -3.077918 0.293902 -5.464200
v -5.577918 1.468513 -5.069539
v -6.006561 1.468513 -5.069539
v -6.006561 1.468513 2.968045
v -5.577918 1.468513 2.968045
v -5.577918 1.468513 -3.069539
v -5.577918 1.468513 4.930461
v -6.006561 1.468513 -3.069539
v -6.006561 1.468513 4.930461
v 0.800266 1.317341 5.366441
v 0.800266 1.317341 5.801929
v -3.077918 1.468513 5.430461
v -5.077918 1.468513 5.430461
v -3.077918 1.468513 5.430461
v -3.077918 1.468513 5.865949
v -5.077918 1.468513 5.865949
v -3.077918 1.468513 5.865949
v -5.587885 1.468513 5.423096
v -1.179968 1.307370 -5.502540
v -3.077918 1.468513 -5.569539
v -5.077918 1.468513 -5.964200
v -5.578724 1.468513 -5.570545
v -1.179968 1.307370 -5.897201
v -3.077918 1.468513 -5.964200
v -5.077918 1.468513 -5.569539
v 0.647829 0.139001 2.968045
v 0.647829 -0.260999 4.930461
v 0.647829 -0.260999 2.968045
v 0.554174 0.293902 3.068044
v 0.554174 0.293902 4.930461
v 0.647829 -0.260999 4.930461
v 0.554174 0.293902 4.930461
v 0.647829 -0.260999 5.365949
v 0.554174 0.293902 5.365949
v 0.647829 -0.260999 5.365949
v 0.554174 0.293902 5.365949
v 0.647829 0.139001 5.365949
v 0.647829 -0.260999 5.365949
v 0.554174 0.293902 5.365949
v 0.554174 1.468513 5.430461
v 0.554174 1.468513 5.865949
v -1.366364 -0.260999 -5.069539
v -1.366364 -0.260999 -3.069539
v -1.366364 0.139001 -3.069539
v -1.452029 0.293902 -3.169539
v -1.366364 -0.260999 -5.069539
v -1.452029 0.293902 -5.069539
v -1.366364 -0.260999 -5.069539
v -1.366364 -0.260999 -5.464200
v -1.366364 0.139001 -5.464200
v -1.452029 0.293902 -5.464200
v -1.366364 -0.260999 -5.069539
v -1.452029 1.468513 -5.569539
v -1.452029 1.468513 -5.964200
vn -0.0000 1.0000 -0.0000
vn -0.0000 -1.0000 -0.0000
vn -0.0000 0.5424 -0.8401
vn 1.0000 -0.0000 -0.0000
vn 0.8401 0.5424 -0.0000
vn -0.0000 0.5424 0.8401
vn -0.0000 -0.0000 -1.0000
vn -0.0000 -0.0000 1.0000
vn -0.8776 -0.2327 -0.4192
vn -0.4159 -0.2235 0.8815
vn 0.6433 0.4153 -0.6433
vn 0.6433 0.4153 0.6433
vn -1.0000 -0.0000 -0.0000
vn 0.9201 0.3917 -0.0000
vn -0.0000 0.3917 -0.9201
vn -0.9201 -0.3917 -0.0000
vn 0.0029 0.3922 0.9199
vn 0.5096 0.8604 -0.0000
vn 0.6771 0.2882 0.6771
vn -0.0000 -0.3917 0.9201
vn -0.0007 -0.3918 0.9201
vn -0.0000 -0.3917 -0.9201
vn 0.6771 0.2882 -0.6771
vn -0.0000 0.3917 0.9201
vn -0.3784 -0.2422 -0.8934
vn -0.8873 -0.2293 0.4002
vn 0.5234 0.8521 -0.0000
vn 0.0007 0.3918 -0.9201
vn -0.0029 -0.3922 -0.9199
vt 0.625000 0.750000
vt 0.125000 0.500000
vt 0.125000 0.550000
vt 0.125000 0.700940
vt 0.375000 0.700940
vt 0.375000 0.750000
vt 0.125000 0.750000
vt 0.375000 0.500000
vt 0.281250 0.375000
vt 0.375000 0.550000
vt 0.625000 0.700940
vt 0.625000 0.700940
vt 0.625000 0.550000
vt 0.625000 0.550000
vt 0.375000 0.550000
vt 0.625000 0.500000
vt 0.625000 0.000000
vt 0.875000 0.700940
vt 0.875000 0.550000
vt 0.000000 0.000000
vt 0.625000 0.250000
vt 0.625000 0.200000
vt 0.625000 0.049060
vt 0.375000 0.200000
vt 0.375000 0.250000
vt 0.375000 0.049060
vt 0.375000 0.000000
vt 0.535409 0.428328
vt 0.187500 0.250000
vt 0.535410 0.428328
vt 0.625000 1.000000
vt 0.375000 1.000000
s 0
usemtl CouchMat
f 187/1/1 37/1/1 64/1/1 189/1/1
f 4/2/2 7/3/2 50/3/2 48/2/2
f 10/4/2 13/5/2 2/6/2 6/7/2
f 199/8/1 21/8/1 88/8/1 203/9/1
f 4/2/2 1/8/2 9/10/2 7/3/2
f 75/1/1 77/1/1 104/1/1 102/1/1
f 183/11/3 15/11/3 36/11/3 186/12/3
f 9/10/4 8/13/4 11/11/4 13/5/4
f 7/3/2 9/10/2 13/5/2 10/4/2
f 11/11/5 8/13/5 34/13/5 30/11/5
f 201/14/6 27/13/6 43/13/6 202/13/6
f 13/5/1 11/11/1 15/11/1 16/5/1
f 2/6/1 13/5/1 16/5/1 14/6/1
f 185/5/7 183/11/7 18/11/7 17/5/7
f 19/6/4 17/5/4 18/11/4 20/1/4
f 184/6/2 185/5/2 17/5/2 19/6/2
f 200/15/2 199/8/2 25/8/2 26/10/2
f 9/10/1 1/8/1 21/8/1 22/10/1
f 8/13/1 9/10/1 22/10/1 23/13/1
f 25/8/4 24/16/4 27/13/4 26/10/4
f 52/17/1 46/17/1 66/17/1 67/17/1
f 78/1/1 73/1/1 100/1/1 105/1/1
f 201/14/8 200/15/8 26/10/8 27/13/8
f 35/18/1 29/17/1 30/11/1
f 34/13/1 31/19/1 35/18/1 30/11/1
f 186/12/1 187/1/1 39/1/1 38/11/1
f 137/20/1 41/13/1 144/20/1
f 1/8/1 4/2/1 82/2/1 56/8/1
f 151/21/9 138/20/9 160/20/9 179/21/9
f 81/17/10 71/17/10 173/17/10 175/17/10
f 27/13/5 24/16/5 42/16/5 43/13/5
f 4/2/1 48/2/1 84/2/1 82/2/1
f 20/1/5 18/11/5 38/11/5 39/1/5
f 30/20/1 58/20/1 36/11/1
f 31/19/1 34/13/1 32/21/1
f 41/13/1 137/20/1 34/20/1
f 15/11/11 30/20/11 36/11/11
f 36/11/1 58/20/1 64/20/1
f 34/20/12 23/13/12 41/13/12
f 49/22/13 51/23/13 55/23/13 53/22/13
f 50/24/13 49/22/13 47/21/13 48/25/13
f 44/26/13 51/23/13 49/22/13 50/24/13
f 45/27/13 46/17/13 51/23/13 44/26/13
f 51/23/13 46/17/13 52/17/13 55/23/13
f 47/21/13 49/22/13 53/22/13 54/21/13
f 45/7/1 6/7/1 12/7/1 65/7/1
f 7/3/2 10/4/2 44/4/2 50/3/2
f 10/4/2 6/7/2 45/7/2 44/4/2
f 35/18/14 31/19/14 163/19/14 162/18/14
f 188/6/2 62/6/2 76/6/2 190/6/2
f 67/17/13 66/17/13 80/17/13 81/17/13
f 66/17/13 65/27/13 79/27/13 80/17/13
f 61/1/5 63/1/5 77/1/5 75/1/5
f 46/17/1 45/27/1 65/27/1 66/17/1
f 19/6/1 20/1/1 61/1/1 62/6/1
f 29/17/1 52/17/1 67/17/1 58/17/1
f 20/1/1 39/1/1 63/1/1 61/1/1
f 6/7/1 2/6/1 57/6/1 12/7/1
f 28/20/1 29/20/1 58/20/1 59/20/1
f 184/6/1 19/6/1 62/6/1 188/6/1
f 191/1/1 78/1/1 105/1/1 193/1/1
f 72/20/1 71/20/1 98/20/1 99/20/1
f 24/16/1 25/8/1 90/8/1 89/16/1
f 76/6/1 75/1/1 102/1/1 103/6/1
f 190/6/1 76/6/1 103/6/1 192/6/1
f 189/1/15 64/1/15 171/1/15 197/1/15
f 62/6/4 61/1/4 75/1/4 76/6/4
f 55/23/16 52/17/16 166/17/16 161/23/16
f 12/7/2 57/6/2 70/6/2 5/7/2
f 65/7/2 12/7/2 5/7/2 79/7/2
f 159/21/1 182/20/1 179/21/1
f 202/13/1 43/13/1 143/16/1 204/28/1
f 100/1/1 101/6/1 127/6/1 126/1/1
f 86/20/1 91/20/1 117/20/1 112/20/1
f 96/20/1 99/20/1 125/20/1 122/20/1
f 106/7/1 94/7/1 120/7/1 132/7/1
f 203/9/1 88/8/1 114/8/1 205/29/1
f 94/7/1 97/6/1 123/6/1 120/7/1
f 98/17/1 108/17/1 134/17/1 124/17/1
f 89/16/1 90/8/1 116/8/1 115/16/1
f 108/17/1 107/17/1 133/17/1 134/17/1
f 97/6/1 96/1/1 122/1/1 123/6/1
f 80/17/1 79/27/1 106/27/1 107/17/1
f 70/6/1 69/1/1 96/1/1 97/6/1
f 81/17/1 80/17/1 107/17/1 108/17/1
f 71/17/1 81/17/1 108/17/1 98/17/1
f 5/7/1 70/6/1 97/6/1 94/7/1
f 79/7/1 5/7/1 94/7/1 106/7/1
f 69/20/1 72/20/1 99/20/1 96/20/1
f 42/16/1 24/16/1 89/16/1 92/16/1
f 73/1/1 74/6/1 101/6/1 100/1/1
f 54/21/1 32/21/1 86/21/1 87/21/1
f 48/25/1 47/21/1 85/21/1 84/25/1
f 32/20/1 33/20/1 91/20/1 86/20/1
f 47/21/1 54/21/1 87/21/1 85/21/1
f 204/28/17 143/16/17 176/16/17 210/30/17
f 121/31/8 124/31/8 134/31/8 133/31/8
f 123/6/8 122/1/8 121/31/8 120/32/8
f 194/1/8 195/6/8 129/6/8 128/1/8
f 121/31/8 122/1/8 125/1/8 124/31/8
f 194/1/8 128/1/8 130/1/8 196/1/8
f 120/32/8 121/31/8 133/31/8 132/32/8
f 56/8/1 82/2/1 3/2/1 68/8/1
f 192/6/1 103/6/1 129/6/1 195/6/1
f 92/16/1 89/16/1 115/16/1 118/16/1
f 103/6/1 102/1/1 128/1/1 129/6/1
f 99/20/1 98/20/1 124/20/1 125/20/1
f 193/1/1 105/1/1 131/1/1 196/1/1
f 84/25/1 85/21/1 111/21/1 110/25/1
f 82/2/1 84/2/1 110/2/1 3/2/1
f 105/1/1 100/1/1 126/1/1 131/1/1
f 85/21/1 87/21/1 113/21/1 111/21/1
f 102/1/1 104/1/1 130/1/1 128/1/1
f 87/21/1 86/21/1 112/21/1 113/21/1
f 107/17/1 106/27/1 132/27/1 133/17/1
f 145/25/7 147/21/7 146/16/7 109/8/7
f 147/21/7 145/25/7 148/25/7 149/21/7
f 150/21/7 147/21/7 149/21/7 151/21/7
f 206/8/7 207/16/7 154/16/7 155/8/7
f 207/16/7 152/16/7 158/16/7 208/16/7
f 146/16/7 147/21/7 150/21/7 156/16/7
f 59/20/15 58/20/15 170/20/15 169/20/15
f 53/22/16 55/23/16 161/23/16 165/22/16
f 148/25/13 135/20/13 136/20/13 149/21/13
f 151/21/13 149/21/13 136/20/13 138/20/13
f 83/20/2 135/20/2 148/25/2 145/25/2
f 145/25/2 153/20/2 139/20/2 83/20/2
f 206/8/2 209/20/2 139/20/2 153/8/2
f 154/16/4 140/20/4 141/20/4 155/8/4
f 154/16/5 157/16/5 143/16/5 140/20/5
f 163/19/1 159/21/1 160/21/1 165/19/1
f 162/18/1 163/19/1 165/19/1 161/18/1
f 164/17/1 162/18/1 161/18/1 166/17/1
f 175/17/1 173/20/1 170/20/1
f 169/20/1 170/20/1 173/20/1 172/20/1
f 197/1/1 171/1/1 174/1/1 198/1/1
f 210/30/18 176/16/18 180/16/18 211/16/18
f 182/20/1 177/20/1 181/16/1 178/20/1
f 137/20/19 182/20/19 159/20/19
f 143/16/4 157/16/4 180/16/4 176/16/4
f 71/20/20 72/20/20 172/20/20 173/20/20
f 191/1/21 77/1/21 168/1/21 198/1/21
f 64/20/13 78/20/13 174/20/13 171/20/13
f 208/16/22 158/16/22 181/16/22 211/16/22
f 29/17/14 35/18/14 162/18/14 164/17/14
f 158/20/22 150/20/22 178/20/22 181/20/22
f 77/1/4 63/1/4 167/1/4 168/1/4
f 166/20/1 175/20/1 164/17/1
f 170/20/23 58/20/23 164/20/23
f 137/20/24 144/20/24 177/20/24 182/20/24
f 150/21/25 151/21/25 179/21/25 178/21/25
f 31/19/14 32/21/14 159/21/14 163/19/14
f 72/20/4 59/20/4 169/20/4 172/20/4
f 54/21/16 53/22/16 165/22/16 160/21/16
f 160/21/1 159/21/1 179/21/1
f 175/20/26 166/20/26 67/20/26 134/20/26
f 179/21/1 182/20/1 178/20/1
f 175/17/1 170/20/1 164/20/1
f 78/1/20 191/1/20 198/1/20 174/1/20
f 167/1/27 197/1/27 198/1/27 168/1/27
f 104/1/1 193/1/1 196/1/1 130/1/1
f 101/6/1 192/6/1 195/6/1 127/6/1
f 126/1/8 194/1/8 196/1/8 131/1/8
f 126/1/8 127/6/8 195/6/8 194/1/8
f 63/1/28 189/1/28 197/1/28 167/1/28
f 74/6/1 190/6/1 192/6/1 101/6/1
f 77/1/1 191/1/1 193/1/1 104/1/1
f 14/6/1 184/6/1 188/6/1 60/6/1
f 60/6/2 188/6/2 190/6/2 74/6/2
f 36/11/1 37/1/1 187/1/1 186/12/1
f 14/6/2 16/5/2 185/5/2 184/6/2
f 16/5/7 15/11/7 183/11/7 185/5/7
f 18/11/3 183/11/3 186/12/3 38/11/3
f 39/1/1 187/1/1 189/1/1 63/1/1
f 157/16/29 208/16/29 211/16/29 180/16/29
f 177/20/1 210/30/1 211/16/1 181/16/1
f 155/8/2 141/20/2 209/20/2 206/8/2
f 154/16/7 207/16/7 208/16/7 157/16/7
f 153/8/7 152/16/7 207/16/7 206/8/7
f 144/20/24 204/28/24 210/30/24 177/20/24
f 90/8/1 203/9/1 205/29/1 116/8/1
f 41/13/1 202/13/1 204/28/1 144/20/1
f 23/13/8 22/10/8 200/15/8 201/14/8
f 22/10/2 21/8/2 199/8/2 200/15/2
f 23/13/6 201/14/6 202/13/6 41/13/6
f 25/8/1 199/8/1 203/9/1 90/8/1
l 40 93
l 144 119
l 118 143
l 83 3
l 110 135
l 119 93
l 112 137
l 138 113
l 115 140
l 139 114
l 95 68
l 116 141
l 142 117
l 111 136
l 156 142
o Cube.007
v -5.118065 -0.707119 -4.878708
v -5.118065 -0.107119 -4.878708
v -5.118065 -0.707119 -5.178709
v -5.118065 -0.107119 -5.178709
v -4.818065 -0.707119 -4.878708
v -4.818065 -0.107119 -4.878708
v -4.818065 -0.707119 -5.178709
v -4.818065 -0.107119 -5.178709
v 0.094738 -0.707119 5.056974
v 0.094738 -0.107119 5.056974
v 0.094738 -0.707119 4.756974
v 0.094738 -0.107119 4.756974
v 0.394738 -0.707119 5.056974
v 0.394738 -0.107119 5.056974
v 0.394738 -0.707119 4.756974
v 0.394738 -0.107119 4.756974
v 0.094738 -0.707119 3.606795
v 0.094738 -0.107119 3.606795
v 0.094738 -0.707119 3.306795
v 0.094738 -0.107119 3.306795
v 0.394738 -0.707119 3.606795
v 0.394738 -0.107119 3.606795
v 0.394738 -0.707119 3.306795
v 0.394738 -0.107119 3.306795
v -3.648290 -0.707119 3.606795
v -3.648290 -0.107119 3.606795
v -3.648290 -0.707119 3.306795
v -3.648290 -0.107119 3.306795
v -3.348290 -0.707119 3.606795
v -3.348290 -0.107119 3.606795
v -3.348290 -0.707119 3.306795
v -3.348290 -0.107119 3.306795
v -3.648290 -0.707119 -3.369739
v -3.648290 -0.107119 -3.369739
v -3.648290 -0.707119 -3.669739
v -3.648290 -0.107119 -3.669739
v -3.348290 -0.707119 -3.369739
v -3.348290 -0.107119 -3.369739
v -3.348290 -0.707119 -3.669739
v -3.348290 -0.107119 -3.669739
v -1.747381 -0.707119 -3.369739
v -1.747381 -0.107119 -3.369739
v -1.747381 -0.707119 -3.669739
v -1.747381 -0.107119 -3.669739
v -1.447381 -0.707119 -3.369739
v -1.447381 -0.107119 -3.369739
v -1.447381 -0.707119 -3.669739
v -1.447381 -0.107119 -3.669739
v -1.747381 -0.707119 -4.878708
v -1.747381 -0.107119 -4.878708
v -1.747381 -0.707119 -5.178709
v -1.747381 -0.107119 -5.178709
v -1.447381 -0.707119 -4.878708
v -1.447381 -0.107119 -4.878708
v -1.447381 -0.707119 -5.178709
v -1.447381 -0.107119 -5.178709
v -5.118065 -0.707119 4.998182
v -5.118065 -0.107119 4.998182
v -5.118065 -0.707119 4.698182
v -5.118065 -0.107119 4.698182
v -4.818065 -0.707119 4.998182
v -4.818065 -0.107119 4.998182
v -4.818065 -0.707119 4.698182
v -4.818065 -0.107119 4.698182
v -5.118065 -0.707119 0.153802
v -5.118065 -0.107119 0.153802
v -5.118065 -0.707119 -0.146198
v -5.118065 -0.107119 -0.146198
v -4.818065 -0.707119 0.153802
v -4.818065 -0.107119 0.153802
v -4.818065 -0.707119 -0.146198
v -4.818065 -0.107119 -0.146198
v -3.730597 -0.707119 0.153802
v -3.730597 -0.107119 0.153802
v -3.730597 -0.707119 -0.146198
v -3.730597 -0.107119 -0.146198
v -3.430598 -0.707119 0.153802
v -3.430598 -0.107119 0.153802
v -3.430598 -0.707119 -0.146198
v -3.430598 -0.107119 -0.146198
vn -1.0000 -0.0000 -0.0000
vn -0.0000 -0.0000 -1.0000
vn 1.0000 -0.0000 -0.0000
vn -0.0000 -0.0000 1.0000
vn -0.0000 -1.0000 -0.0000
vn -0.0000 1.0000 -0.0000
vt 0.375000 0.000000
vt 0.625000 0.000000
vt 0.625000 0.250000
vt 0.375000 0.250000
vt 0.625000 0.500000
vt 0.375000 0.500000
vt 0.625000 0.750000
vt 0.375000 0.750000
vt 0.625000 1.000000
vt 0.375000 1.000000
vt 0.125000 0.500000
vt 0.125000 0.750000
vt 0.875000 0.500000
vt 0.875000 0.750000
s 0
usemtl BaseMat
f 212/33/30 213/34/30 215/35/30 214/36/30
f 214/36/31 215/35/31 219/37/31 218/38/31
f 218/38/32 219/37/32 217/39/32 216/40/32
f 216/40/33 217/39/33 213/41/33 212/42/33
f 214/43/34 218/38/34 216/40/34 212/44/34
f 219/37/35 215/45/35 213/46/35 217/39/35
f 220/33/30 221/34/30 223/35/30 222/36/30
f 222/36/31 223/35/31 227/37/31 226/38/31
f 226/38/32 227/37/32 225/39/32 224/40/32
f 224/40/33 225/39/33 221/41/33 220/42/33
f 222/43/34 226/38/34 224/40/34 220/44/34
f 227/37/35 223/45/35 221/46/35 225/39/35
f 228/33/30 229/34/30 231/35/30 230/36/30
f 230/36/31 231/35/31 235/37/31 234/38/31
f 234/38/32 235/37/32 233/39/32 232/40/32
f 232/40/33 233/39/33 229/41/33 228/42/33
f 230/43/34 234/38/34 232/40/34 228/44/34
f 235/37/35 231/45/35 229/46/35 233/39/35
f 236/33/30 237/34/30 239/35/30 238/36/30
f 238/36/31 239/35/31 243/37/31 242/38/31
f 242/38/32 243/37/32 241/39/32 240/40/32
f 240/40/33 241/39/33 237/41/33 236/42/33
f 238/43/34 242/38/34 240/40/34 236/44/34
f 243/37/35 239/45/35 237/46/35 241/39/35
f 244/33/30 245/34/30 247/35/30 246/36/30
f 246/36/31 247/35/31 251/37/31 250/38/31
f 250/38/32 251/37/32 249/39/32 248/40/32
f 248/40/33 249/39/33 245/41/33 244/42/33
f 246/43/34 250/38/34 248/40/34 244/44/34
f 251/37/35 247/45/35 245/46/35 249/39/35
f 252/33/30 253/34/30 255/35/30 254/36/30
f 254/36/31 255/35/31 259/37/31 258/38/31
f 258/38/32 259/37/32 257/39/32 256/40/32
f 256/40/33 257/39/33 253/41/33 252/42/33
f 254/43/34 258/38/34 256/40/34 252/44/34
f 259/37/35 255/45/35 253/46/35 257/39/35
f 260/33/30 261/34/30 263/35/30 262/36/30
f 262/36/31 263/35/31 267/37/31 266/38/31
f 266/38/32 267/37/32 265/39/32 264/40/32
f 264/40/33 265/39/33 261/41/33 260/42/33
f 262/43/34 266/38/34 264/40/34 260/44/34
f 267/37/35 263/45/35 261/46/35 265/39/35
f 268/33/30 269/34/30 271/35/30 270/36/30
f 270/36/31 271/35/31 275/37/31 274/38/31
f 274/38/32 275/37/32 273/39/32 272/40/32
f 272/40/33 273/39/33 269/41/33 268/42/33
f 270/43/34 274/38/34 272/40/34 268/44/34
f 275/37/35 271/45/35 269/46/35 273/39/35
f 276/33/30 277/34/30 279/35/30 278/36/30
f 278/36/31 279/35/31 283/37/31 282/38/31
f 282/38/32 283/37/32 281/39/32 280/40/32
f 280/40/33 281/39/33 277/41/33 276/42/33
f 278/43/34 282/38/34 280/40/34 276/44/34
f 283/37/35 279/45/35 277/46/35 281/39/35
f 284/33/30 285/34/30 287/35/30 286/36/30
f 286/36/31 287/35/31 291/37/31 290/38/31
f 290/38/32 291/37/32 289/39/32 288/40/32
f 288/40/33 289/39/33 285/41/33 284/42/33
f 286/43/34 290/38/34 288/40/34 284/44/34
f 291/37/35 287/45/35 285/46/35 289/39/35
