# Blender 4.0.2
# www.blender.org
mtllib directional_input.mtl
o NoCornerButtons
v -0.280810 -1.049439 1.048926
v -0.280810 1.100486 1.048926
v -0.280810 -1.049439 -1.101000
v -0.280810 1.100486 -1.101000
v 0.240068 -1.049439 1.048926
v 0.240068 1.100486 1.048926
v 0.240068 -1.049439 -1.101000
v 0.240068 1.100486 -1.101000
v 0.299550 1.012616 -1.013130
v 0.299550 -0.961569 -1.013130
v 0.299550 -0.961569 0.961056
v 0.299550 1.012616 0.961056
v 0.299550 0.844980 -0.845493
v 0.299550 -0.793933 -0.845493
v 0.299550 -0.793933 0.793420
v 0.299550 0.844980 0.793420
v 0.200551 0.756064 -0.756577
v 0.200551 -0.705017 -0.756577
v 0.200551 -0.705017 0.704504
v 0.200551 0.756064 0.704504
v -0.280810 -1.049439 -0.942672
v -0.280810 1.100486 -0.942672
v 0.240068 -1.049439 -0.942672
v 0.240068 1.100486 -0.942672
v 0.299550 -0.961569 -0.867744
v 0.299550 1.012616 -0.867744
v 0.299550 -0.793933 -0.724798
v 0.299550 0.844980 -0.724798
v 0.200551 -0.705017 -0.648978
v 0.200551 0.756064 -0.648978
v -0.280810 -1.049439 0.891258
v 0.240068 1.100486 0.891258
v 0.299550 1.012616 0.816276
v 0.299550 0.844980 0.673228
v 0.200551 0.756064 0.597353
v -0.280810 1.100486 0.891258
v 0.240068 -1.049439 0.891258
v 0.299550 -0.961569 0.816276
v 0.299550 -0.793933 0.673228
v 0.200551 -0.705017 0.597353
v -0.280810 1.100486 0.370725
v 0.240068 -1.049439 0.370725
v 0.299550 -0.961569 0.338293
v 0.299550 -0.793933 0.276420
v 0.200551 -0.705017 0.243601
v -0.280810 -1.049439 0.370725
v 0.240068 1.100486 0.370725
v 0.299550 1.012616 0.338293
v 0.299550 0.844980 0.276420
v 0.200551 0.756064 0.243601
v -0.280810 1.100486 -0.434915
v 0.240068 -1.049439 -0.434915
v 0.299550 -0.961569 -0.401492
v 0.299550 -0.793933 -0.337730
v 0.200551 -0.705017 -0.303909
v -0.280810 -1.049439 -0.434915
v 0.240068 1.100486 -0.434915
v 0.299550 1.012616 -0.401492
v 0.299550 0.844980 -0.337730
v 0.200551 0.756064 -0.303909
v -0.280810 -1.049439 0.251523
v 0.240068 1.100486 0.251523
v 0.299550 1.012616 0.228835
v 0.299550 0.844980 0.185551
v 0.200551 0.756064 0.162592
v -0.280810 1.100486 0.251523
v 0.240068 -1.049439 0.251523
v 0.299550 -0.961569 0.228835
v 0.299550 -0.793933 0.185551
v 0.200551 -0.705017 0.162592
v -0.280810 1.100486 -0.317718
v 0.240068 -1.049439 -0.317718
v 0.299550 -0.961569 -0.293876
v 0.299550 -0.793933 -0.248389
v 0.200551 -0.705017 -0.224262
v -0.280810 -1.049439 -0.317718
v 0.240068 1.100486 -0.317718
v 0.299550 1.012616 -0.293876
v 0.299550 0.844980 -0.248389
v 0.200551 0.756064 -0.224262
v -0.280810 0.945960 1.048926
v -0.280810 0.945960 -1.101000
v 0.240068 0.945960 -1.101000
v 0.240068 0.945960 1.048926
v 0.299550 0.870722 -1.013130
v 0.299550 0.870722 0.961056
v 0.299550 0.727183 -0.845493
v 0.299550 0.727183 0.793420
v 0.200551 0.651048 -0.756577
v 0.200551 0.651048 0.704504
v 0.200551 0.651048 -0.648978
v -0.280810 0.945960 -0.942672
v -0.280810 0.945960 0.891258
v 0.200551 0.651048 0.597353
v 0.200551 0.651048 0.243601
v -0.280810 0.945960 0.370725
v 0.200551 0.651048 -0.303909
v -0.280810 0.945960 -0.434915
v -0.280810 0.945960 0.251523
v 0.200551 0.651048 0.162592
v 0.200551 0.651048 -0.224262
v -0.280810 0.945960 -0.317718
v -0.280810 -0.894391 -1.101000
v 0.240068 -0.894391 -1.101000
v 0.240068 -0.894391 1.048926
v 0.299550 -0.819196 -1.013130
v 0.299550 -0.819196 0.961056
v 0.299550 -0.675738 -0.845493
v 0.299550 -0.675738 0.793420
v 0.200551 -0.599647 -0.756577
v 0.200551 -0.599647 0.704504
v 0.200551 -0.599647 -0.648978
v -0.280810 -0.894391 -0.942672
v -0.280810 -0.894391 0.891258
v 0.200551 -0.599647 0.597353
v 0.200551 -0.599647 0.243601
v -0.280810 -0.894391 0.370725
v 0.200551 -0.599647 -0.303909
v -0.280810 -0.894391 -0.434915
v -0.280810 -0.894391 0.251523
v 0.200551 -0.599647 0.162592
v 0.200551 -0.599647 -0.224262
v -0.280810 -0.894391 -0.317718
v -0.280810 -0.894391 1.048926
v -0.280810 0.408631 1.048926
v -0.280810 0.408631 -1.101000
v 0.240068 0.408631 -1.101000
v 0.240068 0.408631 1.048926
v 0.299550 0.377315 -1.013130
v 0.299550 0.377315 0.961056
v 0.299550 0.317571 -0.845493
v 0.299550 0.317571 0.793420
v 0.200551 0.285882 -0.756577
v 0.200551 0.285882 0.704504
v 0.200551 0.285882 -0.648978
v -0.280810 0.408631 -0.942672
v -0.280810 0.408631 0.891258
v 0.200551 0.285882 0.597353
v 0.200551 0.285882 0.243601
v -0.280810 0.408631 0.370725
v 0.200551 0.285882 -0.303909
v -0.280810 0.408631 -0.434915
v -0.280810 0.408631 0.251523
v 0.200551 0.285882 0.162592
v 0.200551 0.285882 -0.224262
v -0.280810 0.408631 -0.317718
v -0.280810 -0.383929 -1.101000
v 0.240068 -0.383929 -1.101000
v 0.240068 -0.383929 1.048926
v 0.299550 -0.350459 -1.013130
v 0.299550 -0.350459 0.961056
v 0.299550 -0.286607 -0.845493
v 0.299550 -0.286607 0.793420
v 0.200551 -0.252739 -0.756577
v 0.200551 -0.252739 0.704504
v 0.200551 -0.252739 -0.648978
v -0.280810 -0.383929 -0.942672
v -0.280810 -0.383929 0.891258
v 0.200551 -0.252739 0.597353
v 0.200551 -0.252739 0.243601
v -0.280810 -0.383929 0.370725
v 0.200551 -0.252739 -0.303909
v -0.280810 -0.383929 -0.434915
v -0.280810 -0.383929 0.251523
v 0.200551 -0.252739 0.162592
v 0.200551 -0.252739 -0.224262
v -0.280810 -0.383929 -0.317718
v -0.280810 -0.383929 1.048926
v -0.280810 0.307882 1.048926
v -0.280810 0.307882 -1.101000
v 0.240068 0.307882 -1.101000
v 0.240068 0.307882 1.048926
v 0.299550 0.284802 -1.013130
v 0.299550 0.284802 0.961056
v 0.299550 0.240769 -0.845493
v 0.299550 0.240769 0.793420
v 0.200551 0.217413 -0.756577
v 0.200551 0.217413 0.704504
v 0.200551 0.217413 -0.648978
v -0.280810 0.307882 -0.942672
v -0.280810 0.307882 0.891258
v 0.200551 0.217413 0.597353
v 0.200551 0.217413 0.243601
v -0.280810 0.307882 0.370725
v 0.200551 0.217413 -0.303909
v -0.280810 0.307882 -0.434915
v -0.280810 0.307882 0.251523
v 0.200551 0.217413 0.162592
v 0.200551 0.217413 -0.224262
v -0.280810 0.307882 -0.317718
v -0.280810 -0.261845 -1.101000
v 0.240068 -0.261845 -1.101000
v 0.240068 -0.261845 1.048926
v 0.299550 -0.238355 -1.013130
v 0.299550 -0.238355 0.961056
v 0.299550 -0.193541 -0.845493
v 0.299550 -0.193541 0.793420
v 0.200551 -0.169771 -0.756577
v 0.200551 -0.169771 0.704504
v 0.200551 -0.169771 -0.648978
v -0.280810 -0.261845 -0.942672
v -0.280810 -0.261845 0.891258
v 0.200551 -0.169771 0.597353
v 0.200551 -0.169771 0.243601
v -0.280810 -0.261845 0.370725
v 0.200551 -0.169771 -0.303909
v -0.280810 -0.261845 -0.434915
v -0.280810 -0.261845 0.251523
v 0.200551 -0.169771 0.162592
v 0.200551 -0.169771 -0.224262
v -0.280810 -0.261845 -0.317718
v -0.280810 -0.261845 1.048926
v 0.200551 0.651048 0.243601
v 0.200551 0.651048 0.597353
v 0.200551 0.285882 0.597353
v 0.200551 0.285882 0.243601
v 0.245571 0.651048 -0.224262
v 0.245571 0.651048 0.162592
v 0.245571 -0.252739 0.162592
v 0.245571 -0.599647 0.162592
v 0.245571 -0.252739 -0.224262
v 0.245571 -0.599647 -0.224262
v 0.245571 0.285882 0.162592
v 0.245571 0.285882 -0.224262
v 0.245571 0.217413 -0.224262
v 0.245571 0.217413 0.162592
v 0.245571 0.217413 -0.648978
v 0.245571 0.217413 -0.303909
v 0.245571 0.217413 0.243601
v 0.245571 0.217413 0.597353
v 0.245571 -0.169771 -0.648978
v 0.245571 -0.169771 0.597353
v 0.245571 -0.169771 0.243601
v 0.245571 -0.169771 -0.303909
v 0.245571 -0.169771 0.162592
v 0.245571 -0.169771 -0.224262
v 0.334819 0.614532 -0.185577
v 0.334819 0.614532 0.123907
v 0.334819 -0.287429 0.123907
v 0.334819 -0.564956 0.123907
v 0.334819 -0.287429 -0.185577
v 0.334819 -0.564956 -0.185577
v 0.334819 0.322399 0.123907
v 0.334819 0.322399 -0.185577
v 0.334819 0.178695 -0.185577
v 0.334819 0.178695 0.123907
v 0.334819 0.178695 -0.614471
v 0.334819 0.178695 -0.338416
v 0.334819 0.178695 0.278976
v 0.334819 0.178695 0.561978
v 0.334819 -0.131052 -0.614471
v 0.334819 -0.131052 0.561978
v 0.334819 -0.131052 0.278976
v 0.334819 -0.131052 -0.338416
v 0.334819 -0.131052 0.123907
v 0.334819 -0.131052 -0.185577
vn -1.0000 -0.0000 -0.0000
vn -0.0000 -0.0000 -1.0000
vn 0.8281 -0.0000 0.5606
vn -0.0000 -0.0000 1.0000
vn -0.0000 -1.0000 -0.0000
vn -0.0000 1.0000 -0.0000
vn 1.0000 -0.0000 -0.0000
vn 0.8281 -0.5606 -0.0000
vn 0.8281 0.5606 -0.0000
vn 0.8281 -0.0000 -0.5606
vn 0.6682 -0.7440 -0.0000
vn 0.6682 -0.0000 0.7440
vn 0.6682 -0.0000 -0.7440
vn 0.6682 0.7440 -0.0000
vn 0.3980 0.9174 -0.0000
vn 0.3977 -0.0000 -0.9175
vn 0.3977 -0.0000 0.9175
vn 0.3606 -0.0000 -0.9327
vn 0.3623 -0.9321 -0.0000
vn 0.3685 -0.0000 0.9296
vn 0.3685 -0.0000 -0.9296
vn 0.3606 -0.0000 0.9327
vn 0.3787 0.9255 -0.0000
vn 0.3980 -0.9174 -0.0000
vn 0.3787 -0.9255 -0.0000
vn 0.3623 0.9321 -0.0000
vt 0.607031 0.231589
vt 0.625000 0.231589
vt 0.625000 0.250000
vt 0.607031 0.250000
vt 0.625000 0.500000
vt 0.607031 0.500000
vt 0.393029 0.750000
vt 0.375000 0.750000
vt 0.393029 0.750000
vt 0.607031 0.750000
vt 0.625000 0.750000
vt 0.625000 1.000000
vt 0.607031 1.000000
vt 0.125000 0.731666
vt 0.375000 0.731666
vt 0.125000 0.750000
vt 0.625000 0.731666
vt 0.875000 0.731666
vt 0.875000 0.750000
vt 0.625000 0.731666
vt 0.375000 0.518411
vt 0.375000 0.500000
vt 0.625000 0.731666
vt 0.393029 0.750000
vt 0.607031 0.731666
vt 0.375000 0.518411
vt 0.375000 0.577454
vt 0.375000 0.577454
vt 0.625000 0.518411
vt 0.607031 0.518411
vt 0.625000 0.518411
vt 0.375000 0.577454
vt 0.875000 0.500000
vt 0.875000 0.518411
vt 0.125000 0.500000
vt 0.125000 0.518411
vt 0.607031 0.172546
vt 0.625000 0.172546
vt 0.607031 0.000000
vt 0.625000 0.000000
vt 0.625000 0.018334
vt 0.607031 0.018334
vt 0.375000 0.731666
vt 0.607031 0.671137
vt 0.625000 0.671137
vt 0.625000 0.671137
vt 0.875000 0.671137
vt 0.125000 0.671137
vt 0.375000 0.671137
vt 0.125000 0.657276
vt 0.375000 0.657276
vt 0.625000 0.657276
vt 0.875000 0.657276
vt 0.625000 0.657275
vt 0.625000 0.657275
vt 0.607031 0.657275
vt 0.625000 0.078863
vt 0.607031 0.078863
vt 0.375000 0.671137
vt 0.625000 0.577454
vt 0.607031 0.577454
vt 0.625000 0.577454
vt 0.875000 0.577454
vt 0.125000 0.577454
vt 0.607031 0.158918
vt 0.625000 0.158918
vt 0.375000 0.591082
vt 0.375000 0.591082
vt 0.375000 0.591082
vt 0.375000 0.657276
vt 0.625000 0.092724
vt 0.607031 0.092724
vt 0.607031 0.591082
vt 0.625000 0.591082
vt 0.625000 0.591082
vt 0.625000 0.591082
vt 0.875000 0.591082
vt 0.125000 0.591082
vt 0.544549 0.092724
vt 0.544549 0.158918
vt 0.544549 0.577454
vt 0.544549 0.591082
vt 0.466584 0.591082
vt 0.532834 0.591082
vt 0.544549 0.078863
vt 0.544549 0.172546
vt 0.466584 0.731666
vt 0.466584 0.671137
vt 0.544549 0.018334
vt 0.544549 0.657275
vt 0.544549 0.671137
vt 0.544549 0.000000
vt 0.544549 0.231589
vt 0.544549 0.500000
vt 0.544549 0.518411
vt 0.607031 0.750000
vt 0.544549 0.731666
vt 0.544549 0.750000
vt 0.544549 1.000000
vt 0.544549 0.250000
vt 0.375000 0.231589
vt 0.393029 0.231589
vt 0.393029 0.250000
vt 0.375000 0.250000
vt 0.393029 0.500000
vt 0.393029 1.000000
vt 0.375000 1.000000
vt 0.393029 0.500000
vt 0.393029 0.731666
vt 0.393029 0.518411
vt 0.375000 0.172546
vt 0.393029 0.172546
vt 0.375000 0.000000
vt 0.393029 0.000000
vt 0.393029 0.018334
vt 0.375000 0.018334
vt 0.393029 0.671137
vt 0.393029 0.657276
vt 0.393029 0.078863
vt 0.375000 0.078863
vt 0.393029 0.577454
vt 0.375000 0.158918
vt 0.393029 0.158918
vt 0.393029 0.092724
vt 0.375000 0.092724
vt 0.393029 0.591082
vt 0.452388 0.750000
vt 0.452388 0.750000
vt 0.452388 0.750000
vt 0.452388 0.750000
vt 0.544549 0.750000
vt 0.532834 0.231589
vt 0.532834 0.250000
vt 0.532834 0.500000
vt 0.532834 0.750000
vt 0.532834 1.000000
vt 0.532834 0.500000
vt 0.532833 0.731666
vt 0.532834 0.750000
vt 0.532834 0.518411
vt 0.532834 0.172546
vt 0.532834 0.000000
vt 0.532834 0.018334
vt 0.532834 0.671137
vt 0.532834 0.657275
vt 0.532834 0.078863
vt 0.532834 0.577454
vt 0.532834 0.158918
vt 0.532834 0.092724
vt 0.452388 0.092724
vt 0.452388 0.158918
vt 0.452388 0.577454
vt 0.452388 0.591082
vt 0.452388 0.078863
vt 0.452388 0.172546
vt 0.452388 0.018334
vt 0.452388 0.657276
vt 0.452388 0.671137
vt 0.452388 0.000000
vt 0.452388 0.231589
vt 0.452388 0.500000
vt 0.452388 0.518411
vt 0.452388 0.500000
vt 0.452388 0.731666
vt 0.452388 0.500000
vt 0.452388 1.000000
vt 0.452388 0.250000
vt 0.466584 0.750000
vt 0.466584 0.750000
vt 0.466584 0.750000
vt 0.466584 0.750000
vt 0.532834 0.750000
vt 0.466584 0.092724
vt 0.466584 0.158918
vt 0.466584 0.577454
vt 0.466584 0.657276
vt 0.466584 0.078863
vt 0.466584 0.172546
vt 0.466584 0.018334
vt 0.466584 0.000000
vt 0.466584 0.231589
vt 0.466584 0.500000
vt 0.466584 0.518411
vt 0.466584 0.500000
vt 0.466584 0.500000
vt 0.466584 0.500000
vt 0.466584 1.000000
vt 0.466584 0.250000
s 0
usemtl CasingMat.001
f 92/1/1 22/2/1 4/3/1 82/4/1
f 82/4/2 4/3/2 8/5/2 83/6/2
f 105/7/3 5/8/3 11/8/3 107/9/3
f 84/10/4 6/11/4 2/12/4 81/13/4
f 31/14/5 37/15/5 5/8/5 1/16/5
f 32/17/6 36/18/6 2/19/6 6/11/6
f 33/20/7 12/11/7 16/11/7 34/17/7
f 23/21/8 7/22/8 10/22/8 25/21/8
f 32/17/9 6/11/9 12/11/9 33/20/9
f 83/6/10 8/5/10 9/5/10 85/6/10
f 34/17/11 16/11/11 20/11/11 35/23/11
f 85/6/7 9/5/7 13/5/7 87/6/7
f 107/9/7 11/8/7 15/8/7 109/24/7
f 25/21/7 10/22/7 14/22/7 27/21/7
f 87/6/12 13/5/12 17/5/12 89/6/12
f 109/24/13 15/8/13 19/8/13 111/24/13
f 27/21/14 14/22/14 18/22/14 29/26/14
f 54/27/14 27/21/14 29/26/14 55/28/14
f 53/28/7 25/21/7 27/21/7 54/27/7
f 13/5/11 28/29/11 30/29/11 17/5/11
f 8/5/9 24/31/9 26/29/9 9/5/9
f 52/32/8 23/21/8 25/21/8 53/28/8
f 9/5/7 26/29/7 28/29/7 13/5/7
f 8/5/6 4/33/6 22/34/6 24/31/6
f 3/35/5 7/22/5 23/21/5 21/36/5
f 98/37/1 51/38/1 22/2/1 92/1/1
f 81/39/1 2/40/1 36/41/1 93/42/1
f 5/8/8 37/15/8 38/15/8 11/8/8
f 11/8/7 38/15/7 39/15/7 15/8/7
f 15/8/14 39/15/14 40/43/14 19/8/14
f 49/46/11 34/17/11 35/23/11 50/45/11
f 47/46/9 32/17/9 33/20/9 48/45/9
f 48/45/7 33/20/7 34/17/7 49/46/7
f 47/46/6 41/47/6 36/18/6 32/17/6
f 46/48/5 42/49/5 37/15/5 31/14/5
f 61/50/5 67/51/5 42/49/5 46/48/5
f 62/52/6 66/53/6 41/47/6 47/46/6
f 63/54/7 48/45/7 49/46/7 64/55/7
f 62/52/9 47/46/9 48/45/9 63/54/9
f 64/55/11 49/46/11 50/45/11 65/54/11
f 93/42/1 36/41/1 41/57/1 96/58/1
f 37/15/8 42/49/8 43/49/8 38/15/8
f 38/15/7 43/49/7 44/49/7 39/15/7
f 39/15/14 44/49/14 45/59/14 40/43/14
f 28/29/11 59/62/11 60/60/11 30/29/11
f 24/31/9 57/62/9 58/62/9 26/29/9
f 26/29/7 58/62/7 59/62/7 28/29/7
f 24/31/6 22/34/6 51/63/6 57/62/6
f 21/36/5 23/21/5 52/32/5 56/64/5
f 102/65/1 71/66/1 51/38/1 98/37/1
f 72/67/8 52/32/8 53/28/8 73/68/8
f 73/68/7 53/28/7 54/27/7 74/69/7
f 74/69/14 54/27/14 55/28/14 75/68/14
f 44/49/14 69/70/14 70/51/14 45/59/14
f 43/49/7 68/51/7 69/70/7 44/49/7
f 42/49/8 67/51/8 68/51/8 43/49/8
f 96/58/1 41/57/1 66/71/1 99/72/1
f 79/75/11 64/55/11 65/54/11 80/74/11
f 77/76/9 62/52/9 63/54/9 78/76/9
f 78/76/7 63/54/7 64/55/7 79/75/7
f 77/76/6 71/77/6 66/53/6 62/52/6
f 76/78/5 72/67/5 67/51/5 61/50/5
f 56/64/5 52/32/5 72/67/5 76/78/5
f 57/62/6 51/63/6 71/77/6 77/76/6
f 58/62/7 78/76/7 79/75/7 59/62/7
f 57/62/9 77/76/9 78/76/9 58/62/9
f 59/62/11 79/75/11 80/74/11 60/60/11
f 69/70/14 74/69/14 75/68/14 70/51/14
f 68/51/7 73/68/7 74/69/7 69/70/7
f 67/51/8 72/67/8 73/68/8 68/51/8
f 99/72/1 66/71/1 71/66/1 102/65/1
f 143/79/1 99/72/1 102/65/1 146/80/1
f 140/85/1 96/58/1 99/72/1 143/79/1
f 146/80/1 102/65/1 98/37/1 142/86/1
f 137/89/1 93/42/1 96/58/1 140/85/1
f 139/91/6 95/44/6 213/44/6 216/91/6
f 125/92/1 81/39/1 93/42/1 137/89/1
f 142/86/1 98/37/1 92/1/1 136/93/1
f 16/11/13 88/96/13 90/10/13 20/11/13
f 131/94/12 87/6/12 89/6/12 133/94/12
f 12/11/7 86/10/7 88/96/7 16/11/7
f 129/94/7 85/6/7 87/6/7 131/94/7
f 127/94/10 83/6/10 85/6/10 129/94/10
f 128/98/4 84/10/4 81/13/4 125/99/4
f 6/11/3 84/10/3 86/10/3 12/11/3
f 126/100/2 82/4/2 83/6/2 127/94/2
f 136/93/1 92/1/1 82/4/1 126/100/1
f 21/101/1 113/102/1 103/103/1 3/104/1
f 3/104/2 103/103/2 104/105/2 7/22/2
f 5/8/4 105/7/4 124/106/4 1/107/4
f 7/22/10 104/105/10 106/108/10 10/22/10
f 10/22/7 106/108/7 108/105/7 14/22/7
f 14/22/12 108/105/12 110/105/12 18/22/12
f 56/111/1 119/112/1 113/102/1 21/101/1
f 1/113/1 124/114/1 114/115/1 31/116/1
f 31/116/1 114/115/1 117/119/1 46/120/1
f 76/122/1 123/123/1 119/112/1 56/111/1
f 46/120/1 117/119/1 120/124/1 61/125/1
f 61/125/1 120/124/1 123/123/1 76/122/1
f 153/127/13 109/24/13 111/24/13 155/128/13
f 151/129/7 107/9/7 109/24/7 153/127/7
f 149/130/3 105/7/3 107/9/3 151/129/3
f 84/10/3 128/98/3 130/131/3 86/10/3
f 86/10/7 130/131/7 132/98/7 88/96/7
f 88/96/13 132/98/13 134/98/13 90/10/13
f 180/132/1 136/93/1 126/100/1 170/133/1
f 170/133/2 126/100/2 127/94/2 171/134/2
f 172/135/4 128/98/4 125/99/4 169/136/4
f 171/134/10 127/94/10 129/94/10 173/134/10
f 173/134/7 129/94/7 131/94/7 175/137/7
f 175/137/12 131/94/12 133/94/12 177/134/12
f 186/141/1 142/86/1 136/93/1 180/132/1
f 169/142/1 125/92/1 137/89/1 181/143/1
f 181/143/1 137/89/1 140/85/1 184/146/1
f 190/148/1 146/80/1 142/86/1 186/141/1
f 184/146/1 140/85/1 143/79/1 187/149/1
f 187/149/1 143/79/1 146/80/1 190/148/1
f 120/124/1 164/150/1 167/151/1 123/123/1
f 117/119/1 161/154/1 164/150/1 120/124/1
f 123/123/1 167/151/1 163/155/1 119/112/1
f 114/115/1 158/156/1 161/154/1 117/119/1
f 124/114/1 168/159/1 158/156/1 114/115/1
f 119/112/1 163/155/1 157/160/1 113/102/1
f 108/105/12 152/163/12 154/161/12 110/105/12
f 106/108/7 150/161/7 152/163/7 108/105/7
f 104/105/10 148/165/10 150/161/10 106/108/10
f 105/7/4 149/130/4 168/166/4 124/106/4
f 103/103/2 147/167/2 148/165/2 104/105/2
f 113/102/1 157/160/1 147/167/1 103/103/1
f 193/168/3 149/130/3 151/129/3 195/169/3
f 195/169/7 151/129/7 153/127/7 197/170/7
f 197/170/13 153/127/13 155/128/13 199/171/13
f 132/98/13 176/172/13 178/139/13 134/98/13
f 130/131/7 174/139/7 176/172/7 132/98/7
f 128/98/3 172/135/3 174/139/3 130/131/3
f 208/173/1 187/149/1 190/148/1 211/174/1
f 205/177/1 184/146/1 187/149/1 208/173/1
f 211/174/1 190/148/1 186/141/1 207/178/1
f 202/179/1 181/143/1 184/146/1 205/177/1
f 212/180/1 169/142/1 181/143/1 202/179/1
f 207/178/1 186/141/1 180/132/1 201/181/1
f 196/184/12 175/137/12 177/134/12 198/182/12
f 194/185/7 173/134/7 175/137/7 196/184/7
f 192/186/10 171/134/10 173/134/10 194/185/10
f 193/168/4 172/135/4 169/136/4 212/187/4
f 191/188/2 170/133/2 171/134/2 192/186/2
f 201/181/1 180/132/1 170/133/1 191/188/1
f 157/160/1 201/181/1 191/188/1 147/167/1
f 147/167/2 191/188/2 192/186/2 148/165/2
f 149/130/4 193/168/4 212/187/4 168/166/4
f 148/165/10 192/186/10 194/185/10 150/161/10
f 150/161/7 194/185/7 196/184/7 152/163/7
f 152/163/12 196/184/12 198/182/12 154/161/12
f 163/155/1 207/178/1 201/181/1 157/160/1
f 168/159/1 212/180/1 202/179/1 158/156/1
f 158/156/1 202/179/1 205/177/1 161/154/1
f 167/151/1 211/174/1 207/178/1 163/155/1
f 161/154/1 205/177/1 208/173/1 164/150/1
f 164/150/1 208/173/1 211/174/1 167/151/1
f 176/172/13 197/170/13 199/171/13 178/139/13
f 174/139/7 195/169/7 197/170/7 176/172/7
f 172/135/3 193/168/3 195/169/3 174/139/3
f 95/44/6 94/25/6 214/25/6 213/44/6
f 94/25/6 138/97/6 215/97/6 214/25/6
f 138/97/6 139/91/6 216/91/6 215/97/6
usemtl ButtonFillerMat.001
f 94/25/7 35/23/7 20/11/7 90/10/7
f 89/6/7 17/5/7 30/29/7 91/30/7
f 95/44/7 50/45/7 35/23/7 94/25/7
f 100/56/7 65/54/7 50/45/7 95/44/7
f 91/30/7 30/29/7 60/60/7 97/61/7
f 101/73/7 80/74/7 65/54/7 100/56/7
f 97/61/7 60/60/7 80/74/7 101/73/7
f 141/81/7 97/61/7 101/73/7 145/82/7
f 144/90/7 100/56/7 95/44/7 139/91/7
f 133/94/7 89/6/7 91/30/7 135/95/7
f 138/97/7 94/25/7 90/10/7 134/98/7
f 40/43/7 115/109/7 111/24/7 19/8/7
f 18/22/7 110/105/7 112/110/7 29/26/7
f 45/59/7 116/117/7 115/109/7 40/43/7
f 70/51/7 121/118/7 116/117/7 45/59/7
f 29/26/7 112/110/7 118/121/7 55/28/7
f 75/68/7 122/126/7 121/118/7 70/51/7
f 55/28/7 118/121/7 122/126/7 75/68/7
f 182/138/7 138/97/7 134/98/7 178/139/7
f 177/134/7 133/94/7 135/95/7 179/140/7
f 183/144/7 139/91/7 138/97/7 182/138/7
f 188/145/7 144/90/7 139/91/7 183/144/7
f 179/140/7 135/95/7 141/81/7 185/147/7
f 189/84/7 145/82/7 144/90/7 188/145/7
f 185/147/7 141/81/7 145/82/7 189/84/7
f 118/121/7 162/152/7 166/153/7 122/126/7
f 121/118/7 165/157/7 160/158/7 116/117/7
f 110/105/7 154/161/7 156/162/7 112/110/7
f 115/109/7 159/164/7 155/128/7 111/24/7
f 206/175/7 185/147/7 189/84/7 210/83/7
f 209/176/7 188/145/7 183/144/7 204/88/7
f 198/182/7 177/134/7 179/140/7 200/183/7
f 203/87/7 182/138/7 178/139/7 199/171/7
f 159/164/7 203/87/7 199/171/7 155/128/7
f 154/161/7 198/182/7 200/183/7 156/162/7
f 160/158/7 204/88/7 203/87/7 159/164/7
f 165/157/7 209/176/7 204/88/7 160/158/7
f 156/162/7 200/183/7 206/175/7 162/152/7
f 166/153/7 210/83/7 209/176/7 165/157/7
f 162/152/7 206/175/7 210/83/7 166/153/7
f 115/109/7 116/117/7 160/158/7 159/164/7
f 112/110/7 156/162/7 162/152/7 118/121/7
f 97/61/7 141/81/7 135/95/7 91/30/7
f 214/25/7 215/97/7 216/91/7 213/44/7
usemtl ButtonMat.001
f 210/83/2 189/84/2 225/84/2 236/83/2
f 203/87/5 204/88/5 233/88/5 232/87/5
f 101/73/6 100/56/6 218/56/6 217/73/6
f 188/145/4 209/176/4 235/176/4 226/145/4
f 122/126/2 166/153/2 221/153/2 222/126/2
f 227/140/15 228/147/15 248/147/15 247/140/15
f 222/126/16 221/153/16 241/153/16 242/126/16
f 225/84/15 226/145/15 246/145/15 245/84/15
f 219/157/17 220/118/17 240/118/17 239/157/17
f 100/56/4 144/90/4 223/90/4 218/56/4
f 206/175/5 200/183/5 231/183/5 234/175/5
f 145/82/2 101/73/2 217/73/2 224/82/2
f 200/183/2 179/140/2 227/140/2 231/183/2
f 121/118/5 122/126/5 222/126/5 220/118/5
f 189/84/6 188/145/6 226/145/6 225/84/6
f 209/176/5 210/83/5 236/83/5 235/176/5
f 182/138/4 203/87/4 232/87/4 230/138/4
f 179/140/6 185/147/6 228/147/6 227/140/6
f 204/88/2 183/144/2 229/144/2 233/88/2
f 185/147/4 206/175/4 234/175/4 228/147/4
f 183/144/6 182/138/6 230/138/6 229/144/6
f 144/90/5 145/82/5 224/82/5 223/90/5
f 165/157/4 121/118/4 220/118/4 219/157/4
f 166/153/6 165/157/6 219/157/6 221/153/6
f 244/82/7 237/73/7 238/56/7 243/90/7
f 242/126/7 241/153/7 239/157/7 240/118/7
f 256/83/7 245/84/7 246/145/7 255/176/7
f 251/183/7 247/140/7 248/147/7 254/175/7
f 253/88/7 249/144/7 250/138/7 252/87/7
f 229/144/15 230/138/15 250/138/15 249/144/15
f 231/183/18 227/140/18 247/140/18 251/183/18
f 220/118/19 222/126/19 242/126/19 240/118/19
f 230/138/20 232/87/20 252/87/20 250/138/20
f 233/88/21 229/144/21 249/144/21 253/88/21
f 228/147/22 234/175/22 254/175/22 248/147/22
f 218/56/17 223/90/17 243/90/17 238/56/17
f 217/73/23 218/56/23 238/56/23 237/73/23
f 226/145/17 235/176/17 255/176/17 246/145/17
f 224/82/16 217/73/16 237/73/16 244/82/16
f 236/83/16 225/84/16 245/84/16 256/83/16
f 232/87/24 233/88/24 253/88/24 252/87/24
f 223/90/25 224/82/25 244/82/25 243/90/25
f 234/175/24 231/183/24 251/183/24 254/175/24
f 221/153/26 219/157/26 239/157/26 241/153/26
f 235/176/24 236/83/24 256/83/24 255/176/24
