# Blender 4.0.2
# www.blender.org
mtllib flat_screen.mtl
o Cube
v 0.050000 1.800000 -3.000000
v 0.095661 -1.800000 -3.000000
v 0.050000 1.800000 3.000000
v 0.095661 -1.800000 3.000000
v -0.169146 0.731316 -1.218860
v -0.169146 -0.731316 -1.218860
v -0.169146 0.731316 1.218860
v -0.169146 -0.731316 1.218860
v 0.152360 1.800000 -3.000000
v 0.152360 -1.800000 -3.000000
v 0.152360 1.800000 3.000000
v 0.152360 -1.800000 3.000000
v 0.152360 1.708945 -2.848241
v 0.152360 -1.708945 -2.848241
v 0.152360 1.708945 2.848241
v 0.152360 -1.708945 2.848241
v 0.106922 1.709683 -2.832089
v 0.106922 -1.708206 -2.832089
v 0.106922 1.709683 2.864393
v 0.106922 -1.708206 2.864393
vn -0.9796 0.2009 -0.0000
vn -0.9909 -0.0089 0.1346
vn -1.0000 -0.0000 -0.0000
vn -0.9706 -0.2405 -0.0000
vn -0.0000 -0.0000 1.0000
vn -0.9909 -0.0089 -0.1346
vn 1.0000 -0.0000 -0.0000
vn -0.0000 -0.0000 -1.0000
vn -0.0000 -1.0000 -0.0000
vn -0.0000 1.0000 -0.0000
vn -0.0163 -0.9999 -0.0000
vn 0.3349 -0.0000 0.9422
vn 0.0163 0.9999 -0.0000
vn -0.3349 -0.0000 -0.9422
vt 0.625000 0.500000
vt 0.875000 0.500000
vt 0.875000 0.750000
vt 0.625000 0.750000
vt 0.375000 0.750000
vt 0.625000 1.000000
vt 0.375000 1.000000
vt 0.375000 0.000000
vt 0.625000 0.000000
vt 0.625000 0.250000
vt 0.375000 0.250000
vt 0.125000 0.500000
vt 0.375000 0.500000
vt 0.125000 0.750000
vt 0.000010 0.000002
vt 1.000119 0.000049
vt 1.000000 0.999969
vt -0.000012 1.000000
s 0
usemtl ScreenMat
f 18/15/7 17/16/7 19/17/7 20/18/7
usemtl CasingMat
f 1/1/1 5/2/1 7/3/1 3/4/1
f 4/5/2 3/4/2 7/6/2 8/7/2
f 8/8/3 7/9/3 5/10/3 6/11/3
f 6/12/4 2/13/4 4/5/4 8/14/4
f 3/4/5 4/5/5 12/5/5 11/4/5
f 6/11/6 5/10/6 1/1/6 2/13/6
f 12/5/7 10/13/7 14/13/7 16/5/7
f 2/13/8 1/1/8 9/1/8 10/13/8
f 4/5/9 2/13/9 10/13/9 12/5/9
f 1/1/10 3/4/10 11/4/10 9/1/10
f 13/1/11 15/4/11 19/4/11 17/1/11
f 11/4/7 12/5/7 16/5/7 15/4/7
f 9/1/7 11/4/7 15/4/7 13/1/7
f 10/13/7 9/1/7 13/1/7 14/13/7
f 14/13/12 13/1/12 17/1/12 18/13/12
f 16/5/13 14/13/13 18/13/13 20/5/13
f 15/4/14 16/5/14 20/5/14 19/4/14
