# Blender 4.0.2
# www.blender.org
mtllib icosphere_solid_door_left.mtl
o Door_Left_Inner
v 12.941319 0.060903 -4.543263
v 12.941319 4.936638 -0.013649
v 12.941319 4.842952 -0.897333
v 12.941319 4.565495 -1.747058
v 12.941319 4.114928 -2.530168
v 12.941319 3.508569 -3.216570
v 12.941319 2.769716 -3.779885
v 12.941319 1.926766 -4.198467
v 12.941319 1.012112 -4.456228
v 12.941319 0.060903 -0.013650
v 12.941319 0.060903 -0.013650
v 12.941319 4.936638 -0.013649
v 12.941319 4.842952 -0.897333
v 12.941319 4.565495 -1.747058
v 12.941319 4.114928 -2.530168
v 12.941319 3.508569 -3.216570
v 12.941319 2.769716 -3.779885
v 12.941319 1.926766 -4.198467
v 12.941319 1.012112 -4.456228
v 12.941319 0.060903 -4.543263
v 12.941319 0.060903 -0.013650
v 12.941319 4.936638 -0.013649
v 12.941319 4.842952 -0.897333
v 12.941319 4.565495 -1.747058
v 12.941319 4.114928 -2.530168
v 12.941319 3.508569 -3.216570
v 12.941319 2.769716 -3.779885
v 12.941319 1.926766 -4.198467
v 12.941319 1.012112 -4.456228
v 12.941319 0.060903 -4.543263
v 12.941319 0.060903 -0.013650
v 12.941319 4.936638 -0.013649
v 12.941319 4.842952 -0.897333
v 12.941319 4.565495 -1.747058
v 12.941319 4.114928 -2.530168
v 12.941319 3.508569 -3.216570
v 12.941319 2.769716 -3.779885
v 12.941319 1.926766 -4.198467
v 12.941319 1.012112 -4.456228
v 12.941319 0.060903 -4.543263
v 12.941319 0.060903 -0.013650
v 12.941319 4.936638 -0.013649
v 12.941319 4.842952 -0.897333
v 12.941319 4.565495 -1.747058
v 12.941319 4.114928 -2.530168
v 12.941319 3.508569 -3.216570
v 12.941319 2.769716 -3.779885
v 12.941319 1.926766 -4.198467
v 12.941319 1.012112 -4.456228
v 12.941319 0.060903 -4.543263
v 13.144859 0.060903 -0.013650
v 13.144859 4.936638 -0.013649
v 13.144859 4.842952 -0.897333
v 13.144859 4.565495 -1.747058
v 13.144859 4.114928 -2.530168
v 13.144859 3.508569 -3.216570
v 13.144859 2.769716 -3.779885
v 13.144859 1.926766 -4.198467
v 13.144859 1.012112 -4.456228
v 13.144859 0.060903 -4.543263
vn -1.0000 -0.0000 -0.0000
vn 1.0000 -0.0000 -0.0000
vn -0.0000 0.2712 -0.9625
vn -0.0000 0.0911 -0.9958
vn -0.0000 0.9944 -0.1054
vn -0.0000 -1.0000 -0.0000
vn -0.0000 0.9506 -0.3104
vn -0.0000 0.8668 -0.4987
vn -0.0000 0.7495 -0.6621
vn -0.0000 0.6063 -0.7952
vn -0.0000 0.4448 -0.8957
vn -0.0000 -0.0000 1.0000
vt 0.000000 0.000000
s 0
f 2/1/1 3/1/1 4/1/1 5/1/1 6/1/1 7/1/1 8/1/1 9/1/1 1/1/1 10/1/1
f 16/1/2 17/1/2 27/1/2 26/1/2
f 2/1/2 3/1/2 13/1/2 12/1/2
f 1/1/2 10/1/2 11/1/2 20/1/2
f 3/1/2 4/1/2 14/1/2 13/1/2
f 4/1/2 5/1/2 15/1/2 14/1/2
f 5/1/2 6/1/2 16/1/2 15/1/2
f 6/1/2 7/1/2 17/1/2 16/1/2
f 7/1/2 8/1/2 18/1/2 17/1/2
f 8/1/2 9/1/2 19/1/2 18/1/2
f 9/1/2 1/1/2 20/1/2 19/1/2
f 26/1/2 27/1/2 37/1/2 36/1/2
f 17/1/2 18/1/2 28/1/2 27/1/2
f 18/1/2 19/1/2 29/1/2 28/1/2
f 19/1/2 20/1/2 30/1/2 29/1/2
f 12/1/2 13/1/2 23/1/2 22/1/2
f 20/1/2 11/1/2 21/1/2 30/1/2
f 13/1/2 14/1/2 24/1/2 23/1/2
f 14/1/2 15/1/2 25/1/2 24/1/2
f 15/1/2 16/1/2 26/1/2 25/1/2
f 37/1/2 38/1/2 48/1/2 47/1/2
f 27/1/2 28/1/2 38/1/2 37/1/2
f 28/1/2 29/1/2 39/1/2 38/1/2
f 29/1/2 30/1/2 40/1/2 39/1/2
f 22/1/2 23/1/2 33/1/2 32/1/2
f 30/1/2 21/1/2 31/1/2 40/1/2
f 23/1/2 24/1/2 34/1/2 33/1/2
f 24/1/2 25/1/2 35/1/2 34/1/2
f 25/1/2 26/1/2 36/1/2 35/1/2
f 38/1/2 39/1/2 49/1/2 48/1/2
f 39/1/2 40/1/2 50/1/2 49/1/2
f 32/1/2 33/1/2 43/1/2 42/1/2
f 40/1/2 31/1/2 41/1/2 50/1/2
f 33/1/2 34/1/2 44/1/2 43/1/2
f 34/1/2 35/1/2 45/1/2 44/1/2
f 35/1/2 36/1/2 46/1/2 45/1/2
f 36/1/2 37/1/2 47/1/2 46/1/2
f 52/1/2 51/1/2 60/1/2 59/1/2 58/1/2 57/1/2 56/1/2 55/1/2 54/1/2 53/1/2
f 48/1/3 58/1/3 59/1/3 49/1/3
f 49/1/4 59/1/4 60/1/4 50/1/4
f 42/1/5 52/1/5 53/1/5 43/1/5
f 50/1/6 60/1/6 51/1/6 41/1/6
f 43/1/7 53/1/7 54/1/7 44/1/7
f 44/1/8 54/1/8 55/1/8 45/1/8
f 45/1/9 55/1/9 56/1/9 46/1/9
f 46/1/10 56/1/10 57/1/10 47/1/10
f 47/1/11 57/1/11 58/1/11 48/1/11
f 52/1/12 42/1/12 41/1/12 51/1/12
