# Blender 4.0.2
# www.blender.org
mtllib icosphere_solid_tube_and_wall.mtl
o Cylinder.001
v 12.786700 -0.045058 -5.005121
v 21.493053 -0.045057 -5.005121
v 12.786700 -0.045058 4.982618
v 21.493053 -0.045057 4.982618
v 12.786700 1.003643 4.886662
v 21.493053 1.003644 4.886662
v 12.786700 2.012044 4.602482
v 21.493053 2.012045 4.602482
v 12.786700 2.941391 4.140999
v 21.493053 2.941392 4.140999
v 12.786699 3.755971 3.519948
v 21.493053 3.755971 3.519948
v 12.786699 4.424479 2.763194
v 21.493053 4.424480 2.763194
v 12.786699 4.921226 1.899820
v 21.493053 4.921227 1.899820
v 12.786699 5.227120 0.963004
v 21.493053 5.227121 0.963004
v 12.786699 5.330409 -0.011251
v 21.493053 5.330410 -0.011251
v 12.786699 5.227120 -0.985507
v 21.493053 5.227121 -0.985507
v 12.786699 4.921226 -1.922323
v 21.493053 4.921227 -1.922323
v 12.786699 4.424479 -2.785697
v 21.493053 4.424480 -2.785697
v 12.786699 3.755971 -3.542450
v 21.493053 3.755971 -3.542450
v 12.786700 2.941391 -4.163502
v 21.493053 2.941392 -4.163502
v 12.786700 2.012044 -4.624985
v 21.493053 2.012045 -4.624985
v 12.786700 1.003643 -4.909164
v 21.493053 1.003644 -4.909164
v 21.493053 0.097016 -4.462066
v 21.493053 0.097016 4.439563
v 21.493053 1.031678 4.354042
v 21.493053 1.930420 4.100765
v 21.493053 2.758706 3.689466
v 21.493053 3.484705 3.135950
v 21.493053 4.080517 2.461489
v 21.493053 4.523245 1.692002
v 21.493053 4.795876 0.857060
v 21.493053 4.887932 -0.011251
v 21.493053 4.795876 -0.879562
v 21.493053 4.523245 -1.714505
v 21.493053 4.080517 -2.483992
v 21.493053 3.484705 -3.158453
v 21.493053 2.758706 -3.711968
v 21.493053 1.930420 -4.123268
v 21.493053 1.031678 -4.376545
v 12.798318 0.097016 -4.462066
v 12.798318 0.097016 4.439563
v 12.798318 1.031678 4.354042
v 12.798318 1.930421 4.100765
v 12.798318 2.758706 3.689466
v 12.798317 3.484705 3.135950
v 12.798317 4.080517 2.461489
v 12.798317 4.523245 1.692002
v 12.798317 4.795876 0.857060
v 12.798317 4.887932 -0.011251
v 12.798317 4.795876 -0.879562
v 12.798317 4.523245 -1.714505
v 12.798317 4.080517 -2.483992
v 12.798317 3.484705 -3.158453
v 12.798318 2.758706 -3.711968
v 12.798318 1.930421 -4.123268
v 12.798318 1.031678 -4.376545
v 12.786700 -0.045058 -5.005121
v 12.786700 -0.045058 4.982618
v 12.786700 1.003643 4.886662
v 12.786700 2.012044 4.602482
v 12.786700 2.941391 4.140999
v 12.786699 3.755971 3.519948
v 12.786699 4.424479 2.763194
v 12.786699 4.921226 1.899820
v 12.786699 5.227120 0.963004
v 12.786699 5.330409 -0.011251
v 12.786699 5.227120 -0.985507
v 12.786699 4.921226 -1.922323
v 12.786699 4.424479 -2.785697
v 12.786699 3.755971 -3.542450
v 12.786700 2.941391 -4.163502
v 12.786700 2.012044 -4.624985
v 12.786700 1.003643 -4.909164
v 12.798318 0.097016 -4.462066
v 12.798318 0.097016 4.439563
v 12.798318 1.031678 4.354042
v 12.798318 1.930421 4.100765
v 12.798318 2.758706 3.689466
v 12.798317 3.484705 3.135950
v 12.798317 4.080517 2.461489
v 12.798317 4.523245 1.692002
v 12.798317 4.795876 0.857060
v 12.798317 4.887932 -0.011251
v 12.798317 4.795876 -0.879562
v 12.798317 4.523245 -1.714505
v 12.798317 4.080517 -2.483992
v 12.798317 3.484705 -3.158453
v 12.798318 2.758706 -3.711968
v 12.798318 1.930421 -4.123268
v 12.798318 1.031678 -4.376545
v 12.923963 -0.045058 -5.005121
v 12.923963 -0.045058 4.982618
v 12.923963 1.003643 4.886662
v 12.923963 2.012044 4.602482
v 12.923963 2.941391 4.140999
v 12.923962 3.755971 3.519948
v 12.923962 4.424479 2.763194
v 12.923962 4.921226 1.899820
v 12.923962 5.227120 0.963004
v 12.923962 5.330409 -0.011251
v 12.923962 5.227120 -0.985507
v 12.923962 4.921226 -1.922323
v 12.923962 4.424479 -2.785697
v 12.923962 3.755971 -3.542450
v 12.923963 2.941391 -4.163502
v 12.923963 2.012044 -4.624985
v 12.923963 1.003643 -4.909164
v 13.692564 -0.045058 -5.005121
v 13.692564 -0.045058 4.982618
v 13.692564 1.003644 4.886662
v 13.692564 2.012044 4.602482
v 13.692564 2.941391 4.140999
v 13.692564 3.755971 3.519948
v 13.692564 4.424479 2.763194
v 13.692564 4.921226 1.899820
v 13.692564 5.227120 0.963004
v 13.692564 5.330409 -0.011251
v 13.692564 5.227120 -0.985507
v 13.692564 4.921226 -1.922323
v 13.692564 4.424479 -2.785697
v 13.692564 3.755971 -3.542450
v 13.692564 2.941391 -4.163502
v 13.692564 2.012044 -4.624985
v 13.692564 1.003644 -4.909164
v 12.895685 0.000000 9.999999
v 12.895685 9.999999 9.864546
v 12.895685 0.000000 -10.135454
v 12.895685 9.999999 -10.000000
v 13.695684 0.000000 9.864546
v 13.695684 9.999999 9.864546
v 13.695684 0.000000 -10.135454
v 13.695684 9.999999 -10.135454
v 12.895685 0.000000 5.464515
v 12.895685 9.999999 5.464515
v 13.695684 0.000000 5.464515
v 13.695684 9.999999 5.464515
v 12.895685 9.999999 -5.443301
v 13.695684 0.000000 -5.443301
v 12.895685 0.000000 -5.443301
v 13.695684 9.999999 -5.443301
v 12.895685 5.849180 9.864546
v 12.895685 5.849180 -10.135454
v 13.695684 5.849180 -10.135454
v 13.695684 5.849180 9.864546
v 13.695684 5.849180 5.464515
v 12.895685 5.849180 5.464515
v 13.695684 5.849180 -5.443301
v 12.895685 5.849180 -5.443301
v 19.038589 -0.045058 -5.005121
v 19.038589 -0.045058 4.982618
v 19.038589 1.003644 4.886662
v 19.038589 2.012045 4.602482
v 19.038589 2.941392 4.140999
v 19.038589 3.755971 3.519948
v 19.038589 4.424479 2.763194
v 19.038589 4.921226 1.899820
v 19.038589 5.227121 0.963004
v 19.038589 5.330409 -0.011251
v 19.038589 5.227121 -0.985507
v 19.038589 4.921226 -1.922323
v 19.038589 4.424479 -2.785697
v 19.038589 3.755971 -3.542450
v 19.038589 2.941392 -4.163502
v 19.038589 2.012045 -4.624985
v 19.038589 1.003644 -4.909164
v -5.527760 -8.944397 -17.012981
v -5.444843 -8.810231 -16.757788
vn -0.0000 -1.0000 -0.0000
vn -0.0000 0.0911 0.9958
vn -0.0000 0.2712 0.9625
vn -0.0000 0.4448 0.8957
vn -0.0000 0.6063 0.7952
vn -0.0000 0.7495 0.6621
vn -0.0000 0.8668 0.4987
vn -0.0000 0.9506 0.3104
vn -0.0000 0.9944 0.1054
vn -0.0000 0.9944 -0.1054
vn -0.0000 0.9506 -0.3104
vn -0.0000 0.8668 -0.4987
vn -0.0000 0.7495 -0.6621
vn -0.0000 0.6063 -0.7952
vn -0.0000 0.4448 -0.8957
vn -0.0000 0.2712 -0.9625
vn -0.0000 0.0911 -0.9958
vn 1.0000 -0.0000 -0.0000
vn -0.0000 -0.6063 0.7952
vn -0.0000 -0.8668 -0.4987
vn -0.0000 -0.4448 0.8957
vn -0.0000 -0.9506 -0.3104
vn -0.0000 1.0000 -0.0000
vn -0.0000 -0.2712 0.9625
vn -0.0000 -0.9944 -0.1054
vn -0.0000 -0.0911 -0.9958
vn -0.0000 -0.0911 0.9958
vn -0.0000 -0.9944 0.1054
vn -0.0000 -0.2712 -0.9625
vn -0.0000 -0.9506 0.3104
vn -0.0000 -0.4448 -0.8957
vn -0.0000 -0.8668 0.4987
vn -0.0000 -0.6063 -0.7952
vn -0.0000 -0.7495 0.6621
vn -0.0000 -0.7495 -0.6621
vn -0.9967 0.0815 -0.0000
vn -0.9998 -0.0020 -0.0219
vn -0.9997 -0.0062 -0.0221
vn -0.9997 -0.0106 -0.0214
vn -0.9997 -0.0150 -0.0197
vn -0.9997 -0.0190 -0.0168
vn -0.9997 -0.0224 -0.0129
vn -0.9997 -0.0249 -0.0081
vn -0.9997 -0.0262 -0.0028
vn -0.9997 -0.0262 0.0028
vn -0.9997 -0.0249 0.0081
vn -0.9997 -0.0224 0.0129
vn -0.9997 -0.0190 0.0168
vn -0.9997 -0.0150 0.0197
vn -0.9997 -0.0106 0.0214
vn -0.9997 -0.0062 0.0221
vn -0.9998 -0.0020 0.0219
vn -1.0000 -0.0000 -0.0000
vn -0.0843 0.0163 -0.9963
vn -0.0000 -0.0000 1.0000
vn 0.0844 0.0115 0.9964
vn -0.0000 -0.0000 -1.0000
vn -0.9987 -0.0007 -0.0501
vn -0.9999 -0.0041 -0.0145
vn -0.9999 -0.0051 -0.0102
vn -0.9999 -0.0061 -0.0080
vn -1.0000 -0.0074 -0.0066
vn -0.9999 -0.0095 -0.0055
vn -0.9999 -0.0135 -0.0044
vn -0.9985 -0.0008 0.0543
vn -0.9999 -0.0042 0.0149
vn -0.9999 -0.0052 0.0104
vn -0.9999 -0.0062 0.0081
vn -1.0000 -0.0075 0.0066
vn -0.9999 -0.0096 0.0055
vn -0.9999 -0.0136 0.0044
vn -0.9997 -0.0258 0.0027
vn -0.9997 -0.0257 -0.0027
vn -0.9985 -0.0544 -0.0000
vn 1.0000 -0.0001 -0.0055
vn 1.0000 -0.0005 -0.0016
vn 1.0000 -0.0006 -0.0011
vn 1.0000 -0.0007 -0.0009
vn 1.0000 -0.0008 -0.0007
vn 1.0000 -0.0010 -0.0006
vn 1.0000 -0.0015 -0.0005
vn 1.0000 -0.0028 -0.0003
vn 1.0000 -0.0060 -0.0000
vn 1.0000 -0.0029 0.0003
vn 1.0000 -0.0015 0.0005
vn 1.0000 -0.0011 0.0006
vn 1.0000 -0.0008 0.0007
vn 1.0000 -0.0007 0.0009
vn 1.0000 -0.0006 0.0011
vn 1.0000 -0.0005 0.0016
vn 1.0000 -0.0001 0.0060
vt 0.000000 0.859042
vt 0.000000 1.000000
vt 0.500000 1.000000
vt 0.500000 0.859042
vt 0.468750 1.000000
vt 0.468750 0.859042
vt 0.437500 1.000000
vt 0.437500 0.859042
vt 0.406250 1.000000
vt 0.406250 0.859042
vt 0.375000 1.000000
vt 0.375000 0.859042
vt 0.343750 1.000000
vt 0.343750 0.859042
vt 0.312500 1.000000
vt 0.312500 0.859042
vt 0.281250 1.000000
vt 0.281250 0.859042
vt 0.250000 1.000000
vt 0.250000 0.859042
vt 0.218750 1.000000
vt 0.218750 0.859042
vt 0.187500 1.000000
vt 0.187500 0.859042
vt 0.156250 1.000000
vt 0.156250 0.859042
vt 0.125000 1.000000
vt 0.125000 0.859042
vt 0.093750 1.000000
vt 0.093750 0.859042
vt 0.062500 1.000000
vt 0.062500 0.859042
vt 0.031250 1.000000
vt 0.031250 0.859042
vt 0.062500 0.500000
vt 0.031250 0.500000
vt 0.343750 0.500000
vt 0.312500 0.500000
vt 0.218750 0.500000
vt 0.187500 0.500000
vt 0.500000 0.500000
vt 0.468750 0.500000
vt 0.093750 0.500000
vt 0.375000 0.500000
vt 0.000000 0.500000
vt 0.250000 0.500000
vt 0.437500 0.500000
vt 0.406250 0.500000
vt 0.281250 0.500000
vt 0.156250 0.500000
vt 0.125000 0.500000
vt 0.031250 0.507883
vt 0.000000 0.507883
vt 0.062500 0.507883
vt 0.093750 0.507883
vt 0.125000 0.507883
vt 0.156250 0.507883
vt 0.187500 0.507883
vt 0.218750 0.507883
vt 0.250000 0.507883
vt 0.281250 0.507883
vt 0.312500 0.507883
vt 0.343750 0.507883
vt 0.375000 0.507883
vt 0.406250 0.507883
vt 0.437500 0.507883
vt 0.468750 0.507883
vt 0.500000 0.507883
vt 0.031250 0.552023
vt 0.000000 0.552023
vt 0.062500 0.552023
vt 0.093750 0.552023
vt 0.125000 0.552023
vt 0.156250 0.552023
vt 0.187500 0.552023
vt 0.218750 0.552023
vt 0.250000 0.552023
vt 0.281250 0.552023
vt 0.312500 0.552023
vt 0.343750 0.552023
vt 0.375000 0.552023
vt 0.406250 0.552023
vt 0.437500 0.552023
vt 0.468750 0.552023
vt 0.500000 0.552023
vt 0.521230 0.191348
vt 0.625000 0.191348
vt 0.625000 0.250000
vt 0.521230 0.250000
vt 0.625000 0.500000
vt 0.521230 0.500000
vt 0.521230 0.695000
vt 0.625000 0.695000
vt 0.625000 0.750000
vt 0.521230 0.750000
vt 0.625000 1.000000
vt 0.521230 1.000000
vt 0.125000 0.695000
vt 0.375000 0.695000
vt 0.375000 0.750000
vt 0.125000 0.750000
vt 0.875000 0.695000
vt 0.875000 0.750000
vt 0.625000 0.558652
vt 0.875000 0.558652
vt 0.125000 0.558652
vt 0.375000 0.558652
vt 0.521230 0.558652
vt 0.521230 0.000000
vt 0.625000 0.000000
vt 0.625000 0.055000
vt 0.521230 0.055000
vt 0.875000 0.500000
vt 0.375000 0.000000
vt 0.375000 0.055000
vt 0.375000 0.250000
vt 0.375000 0.191348
vt 0.000000 0.000000
s 0
usemtl Exit_Tube_Mat
f 161/1/1 2/2/1 4/3/1 162/4/1
f 162/4/2 4/3/2 6/5/2 163/6/2
f 163/6/3 6/5/3 8/7/3 164/8/3
f 164/8/4 8/7/4 10/9/4 165/10/4
f 165/10/5 10/9/5 12/11/5 166/12/5
f 166/12/6 12/11/6 14/13/6 167/14/6
f 167/14/7 14/13/7 16/15/7 168/16/7
f 168/16/8 16/15/8 18/17/8 169/18/8
f 169/18/9 18/17/9 20/19/9 170/20/9
f 170/20/10 20/19/10 22/21/10 171/22/10
f 171/22/11 22/21/11 24/23/11 172/24/11
f 172/24/12 24/23/12 26/25/12 173/26/12
f 173/26/13 26/25/13 28/27/13 174/28/13
f 174/28/14 28/27/14 30/29/14 175/30/14
f 175/30/15 30/29/15 32/31/15 176/32/15
f 176/32/16 32/31/16 34/33/16 177/34/16
f 177/34/17 34/33/17 2/2/17 161/1/17
f 18/17/18 16/15/18 42/15/18 43/17/18
f 4/3/18 2/2/18 35/2/18 36/3/18
f 28/27/18 26/25/18 47/25/18 48/27/18
f 14/13/18 12/11/18 40/11/18 41/13/18
f 24/23/18 22/21/18 45/21/18 46/23/18
f 34/33/18 32/31/18 50/31/18 51/33/18
f 10/9/18 8/7/18 38/7/18 39/9/18
f 20/19/18 18/17/18 43/17/18 44/19/18
f 30/29/18 28/27/18 48/27/18 49/29/18
f 6/5/18 4/3/18 36/3/18 37/5/18
f 16/15/18 14/13/18 41/13/18 42/15/18
f 26/25/18 24/23/18 46/23/18 47/25/18
f 2/2/18 34/33/18 51/33/18 35/2/18
f 12/11/18 10/9/18 39/9/18 40/11/18
f 22/21/18 20/19/18 44/19/18 45/21/18
f 32/31/18 30/29/18 49/29/18 50/31/18
f 8/7/18 6/5/18 37/5/18 38/7/18
f 49/29/19 48/27/19 65/27/19 66/29/19
f 42/15/20 41/13/20 58/13/20 59/15/20
f 50/31/21 49/29/21 66/29/21 67/31/21
f 43/17/22 42/15/22 59/15/22 60/17/22
f 36/3/23 35/2/23 52/2/23 53/3/23
f 51/33/24 50/31/24 67/31/24 68/33/24
f 44/19/25 43/17/25 60/17/25 61/19/25
f 37/5/26 36/3/26 53/3/26 54/5/26
f 35/2/27 51/33/27 68/33/27 52/2/27
f 45/21/28 44/19/28 61/19/28 62/21/28
f 38/7/29 37/5/29 54/5/29 55/7/29
f 46/23/30 45/21/30 62/21/30 63/23/30
f 39/9/31 38/7/31 55/7/31 56/9/31
f 47/25/32 46/23/32 63/23/32 64/25/32
f 40/11/33 39/9/33 56/9/33 57/11/33
f 48/27/34 47/25/34 64/25/34 65/27/34
f 41/13/35 40/11/35 57/11/35 58/13/35
f 68/33/18 67/31/18 101/31/18 102/33/18
f 31/35/18 33/36/18 85/36/18 84/35/18
f 13/37/18 15/38/18 76/38/18 75/37/18
f 54/5/18 53/3/18 87/3/18 88/5/18
f 67/31/18 66/29/18 100/29/18 101/31/18
f 53/3/18 52/2/18 86/2/18 87/3/18
f 21/39/18 23/40/18 80/40/18 79/39/18
f 66/29/18 65/27/18 99/27/18 100/29/18
f 3/41/18 5/42/18 71/42/18 70/41/18
f 65/27/18 64/25/18 98/25/18 99/27/18
f 29/43/18 31/35/18 84/35/18 83/43/18
f 11/44/18 13/37/18 75/37/18 74/44/18
f 64/25/18 63/23/18 97/23/18 98/25/18
f 1/45/18 3/41/18 70/41/18 69/45/18
f 19/46/18 21/39/18 79/39/18 78/46/18
f 63/23/18 62/21/18 96/21/18 97/23/18
f 62/21/18 61/19/18 95/19/18 96/21/18
f 70/41/36 87/3/36 86/2/36 69/45/36
f 70/41/37 71/42/37 88/5/37 87/3/37
f 71/42/38 72/47/38 89/7/38 88/5/38
f 72/47/39 73/48/39 90/9/39 89/7/39
f 73/48/40 74/44/40 91/11/40 90/9/40
f 74/44/41 75/37/41 92/13/41 91/11/41
f 75/37/42 76/38/42 93/15/42 92/13/42
f 76/38/43 77/49/43 94/17/43 93/15/43
f 77/49/44 78/46/44 95/19/44 94/17/44
f 78/46/45 79/39/45 96/21/45 95/19/45
f 79/39/46 80/40/46 97/23/46 96/21/46
f 80/40/47 81/50/47 98/25/47 97/23/47
f 81/50/48 82/51/48 99/27/48 98/25/48
f 82/51/49 83/43/49 100/29/49 99/27/49
f 83/43/50 84/35/50 101/31/50 100/29/50
f 84/35/51 85/36/51 102/33/51 101/31/51
f 85/36/52 69/45/52 86/2/52 102/33/52
f 55/7/18 54/5/18 88/5/18 89/7/18
f 5/42/18 7/47/18 72/47/18 71/42/18
f 52/2/18 68/33/18 102/33/18 86/2/18
f 23/40/18 25/50/18 81/50/18 80/40/18
f 56/9/18 55/7/18 89/7/18 90/9/18
f 57/11/18 56/9/18 90/9/18 91/11/18
f 15/38/18 17/49/18 77/49/18 76/38/18
f 33/36/18 1/45/18 69/45/18 85/36/18
f 58/13/18 57/11/18 91/11/18 92/13/18
f 7/47/18 9/48/18 73/48/18 72/47/18
f 25/50/18 27/51/18 82/51/18 81/50/18
f 59/15/18 58/13/18 92/13/18 93/15/18
f 60/17/18 59/15/18 93/15/18 94/17/18
f 17/49/18 19/46/18 78/46/18 77/49/18
f 61/19/18 60/17/18 94/17/18 95/19/18
f 9/48/18 11/44/18 74/44/18 73/48/18
f 27/51/18 29/43/18 83/43/18 82/51/18
f 33/36/17 119/52/17 103/53/17 1/45/17
f 31/35/16 118/54/16 119/52/16 33/36/16
f 29/43/15 117/55/15 118/54/15 31/35/15
f 27/51/14 116/56/14 117/55/14 29/43/14
f 25/50/13 115/57/13 116/56/13 27/51/13
f 23/40/12 114/58/12 115/57/12 25/50/12
f 21/39/11 113/59/11 114/58/11 23/40/11
f 19/46/10 112/60/10 113/59/10 21/39/10
f 17/49/9 111/61/9 112/60/9 19/46/9
f 15/38/8 110/62/8 111/61/8 17/49/8
f 13/37/7 109/63/7 110/62/7 15/38/7
f 11/44/6 108/64/6 109/63/6 13/37/6
f 9/48/5 107/65/5 108/64/5 11/44/5
f 7/47/4 106/66/4 107/65/4 9/48/4
f 5/42/3 105/67/3 106/66/3 7/47/3
f 3/41/2 104/68/2 105/67/2 5/42/2
f 1/45/1 103/53/1 104/68/1 3/41/1
f 119/52/17 136/69/17 120/70/17 103/53/17
f 118/54/16 135/71/16 136/69/16 119/52/16
f 117/55/15 134/72/15 135/71/15 118/54/15
f 116/56/14 133/73/14 134/72/14 117/55/14
f 115/57/13 132/74/13 133/73/13 116/56/13
f 114/58/12 131/75/12 132/74/12 115/57/12
f 113/59/11 130/76/11 131/75/11 114/58/11
f 112/60/10 129/77/10 130/76/10 113/59/10
f 111/61/9 128/78/9 129/77/9 112/60/9
f 110/62/8 127/79/8 128/78/8 111/61/8
f 109/63/7 126/80/7 127/79/7 110/62/7
f 108/64/6 125/81/6 126/80/6 109/63/6
f 107/65/5 124/82/5 125/81/5 108/64/5
f 106/66/4 123/83/4 124/82/4 107/65/4
f 105/67/3 122/84/3 123/83/3 106/66/3
f 104/68/2 121/85/2 122/84/2 105/67/2
f 103/53/1 120/70/1 121/85/1 104/68/1
f 136/69/17 177/34/17 161/1/17 120/70/17
f 135/71/16 176/32/16 177/34/16 136/69/16
f 134/72/15 175/30/15 176/32/15 135/71/15
f 133/73/14 174/28/14 175/30/14 134/72/14
f 132/74/13 173/26/13 174/28/13 133/73/13
f 131/75/12 172/24/12 173/26/12 132/74/12
f 130/76/11 171/22/11 172/24/11 131/75/11
f 129/77/10 170/20/10 171/22/10 130/76/10
f 128/78/9 169/18/9 170/20/9 129/77/9
f 127/79/8 168/16/8 169/18/8 128/78/8
f 126/80/7 167/14/7 168/16/7 127/79/7
f 125/81/6 166/12/6 167/14/6 126/80/6
f 124/82/5 165/10/5 166/12/5 125/81/5
f 122/84/3 163/6/3 164/8/3 123/83/3
f 121/85/2 162/4/2 163/6/2 122/84/2
f 120/70/1 161/1/1 162/4/1 121/85/1
usemtl Interior_Wall_Mat
f 160/86/53 149/87/53 140/88/53 154/89/53
f 154/89/54 140/88/54 144/90/54 155/91/54
f 157/92/18 148/93/18 142/94/18 156/95/18
f 156/95/55 142/94/55 138/96/55 153/97/55
f 145/98/1 147/99/1 141/100/1 137/101/1
f 148/93/23 146/102/23 138/103/23 142/94/23
f 152/104/23 149/105/23 146/102/23 148/93/23
f 151/106/1 150/107/1 147/99/1 145/98/1
f 159/108/18 152/104/18 148/93/18 157/92/18
f 153/109/53 138/110/53 146/111/53 158/112/53
f 155/91/18 144/90/18 152/104/18 159/108/18
f 139/51/1 143/44/1 150/107/1 151/106/1
f 144/90/23 140/113/23 149/105/23 152/104/23
f 158/112/53 146/111/53 149/87/53 160/86/53
f 143/44/18 155/91/18 159/108/18 150/107/18
f 137/114/53 153/109/53 158/112/53 145/115/53
f 141/100/56 156/95/56 153/97/56 137/11/56
f 147/99/18 157/92/18 156/95/18 141/100/18
f 139/116/57 154/89/57 155/91/57 143/44/57
f 151/117/53 160/86/53 154/89/53 139/116/53
f 145/115/58 158/112/58 105/67/58 104/68/58
f 106/66/59 105/67/59 158/112/59
f 107/65/60 106/66/60 158/112/60
f 158/112/61 108/64/61 107/65/61
f 109/63/62 108/64/62 158/112/62
f 158/112/63 110/62/63 109/63/63
f 158/112/64 111/61/64 110/62/64
f 151/117/65 103/53/65 119/52/65 160/86/65
f 160/86/66 119/52/66 118/54/66
f 160/86/67 118/54/67 117/55/67
f 117/55/68 116/56/68 160/86/68
f 116/56/69 115/57/69 160/86/69
f 115/57/70 114/58/70 160/86/70
f 114/58/71 113/59/71 160/86/71
f 113/59/72 112/60/72 160/86/72
f 158/112/73 112/60/73 111/61/73
f 158/112/74 160/86/74 112/60/74
f 147/99/75 121/85/75 122/84/75 157/92/75
f 157/92/76 122/84/76 123/83/76
f 157/92/77 123/83/77 124/82/77
f 124/82/78 125/81/78 157/92/78
f 125/81/79 126/80/79 157/92/79
f 126/80/80 127/79/80 157/92/80
f 127/79/81 128/78/81 157/92/81
f 128/78/82 129/77/82 157/92/82
f 157/92/83 129/77/83 159/108/83
f 130/76/84 159/108/84 129/77/84
f 131/75/85 159/108/85 130/76/85
f 132/74/86 159/108/86 131/75/86
f 133/73/87 159/108/87 132/74/87
f 134/72/88 159/108/88 133/73/88
f 134/72/89 135/71/89 159/108/89
f 135/71/90 136/69/90 159/108/90
f 159/118/91 136/118/91 120/118/91 150/118/91
usemtl Icosphere_Mat
f 123/83/4 164/8/4 165/10/4 124/82/4
