# Blender 4.0.2
# www.blender.org
mtllib PC.mtl
o Cube
v 1.000000 1.000000 -0.716139
v 1.000000 -1.000000 -0.716139
v 1.000000 1.000000 0.716139
v 1.000000 -1.000000 0.716139
v -1.000000 1.000000 -0.716139
v -1.000000 -1.000000 -0.716139
v -1.000000 1.000000 0.716139
v -1.000000 -1.000000 0.716139
v 0.690378 -0.724568 -0.716139
v -0.677433 -0.724568 -0.716139
v 0.690378 0.603807 -0.716139
v -0.677433 0.603807 -0.716139
v 1.000000 1.000000 -0.716139
v 1.000000 -1.000000 -0.716139
v 1.000000 1.000000 0.716139
v 1.000000 -1.000000 0.716139
v 1.000000 0.824538 -0.590484
v 1.000000 -0.824538 -0.590484
v 1.000000 0.824538 0.590484
v 1.000000 -0.824538 0.590484
v 0.904386 0.824538 -0.590484
v 0.904386 -0.824538 -0.590484
v 0.904386 0.824538 0.590484
v 0.904386 -0.824538 0.590484
vn -0.0000 1.0000 -0.0000
vn -0.0000 -0.0000 1.0000
vn -1.0000 -0.0000 -0.0000
vn -0.0000 -1.0000 -0.0000
vn -0.0000 -0.0000 -1.0000
vn 1.0000 -0.0000 -0.0000
vt 0.625000 0.500000
vt 0.875000 0.500000
vt 0.875000 0.750000
vt 0.625000 0.750000
vt 0.375000 0.750000
vt 0.625000 1.000000
vt 0.375000 1.000000
vt 0.375000 0.000000
vt 0.625000 0.000000
vt 0.625000 0.250000
vt 0.375000 0.250000
vt 0.125000 0.500000
vt 0.375000 0.500000
vt 0.125000 0.750000
s 0
usemtl CaseMat
f 1/1/1 5/2/1 7/3/1 3/4/1
f 4/5/2 3/4/2 7/6/2 8/7/2
f 8/8/3 7/9/3 5/10/3 6/11/3
f 6/12/4 2/13/4 4/5/4 8/14/4
f 3/4/1 4/5/1 16/5/1 15/4/1
f 1/1/5 2/13/5 9/13/5 11/1/5
f 6/11/5 5/10/5 12/10/5 10/11/5
f 2/13/5 6/12/5 10/12/5 9/13/5
f 5/2/5 1/1/5 11/1/5 12/2/5
f 13/1/6 15/4/6 19/4/6 17/1/6
f 2/13/1 1/1/1 13/1/1 14/13/1
f 4/5/1 2/13/1 14/13/1 16/5/1
f 1/1/1 3/4/1 15/4/1 13/1/1
f 18/13/2 17/1/2 21/1/2 22/13/2
f 14/13/6 13/1/6 17/1/6 18/13/6
f 16/5/6 14/13/6 18/13/6 20/5/6
f 15/4/6 16/5/6 20/5/6 19/4/6
f 22/13/6 21/1/6 23/4/6 24/5/6
f 20/5/1 18/13/1 22/13/1 24/5/1
f 19/4/5 20/5/5 24/5/5 23/4/5
f 17/1/4 19/4/4 23/4/4 21/1/4
usemtl LightMat
f 10/11/5 12/10/5 11/1/5 9/13/5
