# Blender 4.0.2
# www.blender.org
mtllib PC_screen.mtl
o Cube
v -0.001463 0.040000 -0.085215
v 0.277849 -0.040000 -0.400000
v -0.001463 0.040000 0.085215
v 0.277849 -0.040000 0.400000
v -0.119847 0.040000 -0.085215
v -0.277849 -0.040000 -0.400000
v -0.119847 0.040000 0.085215
v -0.277849 -0.040000 0.400000
v -0.001463 0.040000 -0.085215
v -0.001463 0.040000 0.085215
v -0.119847 0.254056 0.085215
v -0.119847 0.254056 -0.085215
v -0.001463 0.254056 -0.085215
v -0.001463 0.254056 0.085215
v 0.037794 1.257510 0.810404
v 0.037794 1.257510 -0.810404
v -0.119847 0.783974 0.085215
v -0.001463 0.937563 -0.085215
v -0.119847 0.783974 -0.085215
v -0.001463 0.937563 0.085215
v 0.037794 0.298328 -0.810404
v 0.037794 0.298328 0.810404
v -0.001463 0.254056 -0.885215
v -0.001463 1.301783 -0.885215
v 0.072602 0.276629 -0.847070
v 0.072602 1.279209 -0.847070
v -0.001463 1.301783 0.885215
v -0.001463 0.254056 0.885215
v 0.072602 1.279209 0.847070
v 0.072602 0.276629 0.847070
vn -0.0000 0.9692 0.2463
vn -0.4517 0.8922 -0.0000
vn -0.0000 -1.0000 -0.0000
vn 0.2753 0.9613 -0.0000
vn -0.0000 0.9692 -0.2463
vn 0.2915 -0.9566 -0.0000
vn -0.0000 1.0000 -0.0000
vn 1.0000 -0.0000 -0.0000
vn -0.0000 -0.0000 1.0000
vn -0.0000 -0.0000 -1.0000
vn -0.7920 0.6105 -0.0000
vn -1.0000 -0.0000 -0.0000
vn 0.7252 -0.0000 0.6885
vn 0.2915 0.9566 -0.0000
vn 0.5290 -0.8486 -0.0000
vn 0.4579 -0.0000 -0.8890
vn 0.7252 -0.0000 -0.6885
vn 0.4579 -0.0000 0.8890
vn 0.5290 0.8486 -0.0000
vt 0.375000 0.750000
vt 0.625000 0.750000
vt 0.625000 1.000000
vt 0.375000 1.000000
vt 0.375000 0.000000
vt 0.625000 0.000000
vt 0.625000 0.250000
vt 0.375000 0.250000
vt 0.125000 0.500000
vt 0.375000 0.500000
vt 0.125000 0.750000
vt 0.625000 0.500000
vt 0.000000 0.000000
vt 0.000000 1.000244
vt 0.000003 0.000000
vt 1.000067 0.000048
vt 1.000015 1.000209
s 0
usemtl Material
f 4/1/1 3/2/1 7/3/1 8/4/1
f 8/5/2 7/6/2 5/7/2 6/8/2
f 6/9/3 2/10/3 4/1/3 8/11/3
f 2/10/4 1/12/4 3/2/4 4/1/4
f 6/8/5 5/7/5 1/12/5 2/10/5
f 30/2/6 28/2/6 23/12/6 25/12/6
f 3/2/7 1/12/7 9/12/7 10/2/7
f 10/2/8 9/12/8 13/13/8 14/13/8
f 7/3/9 3/2/9 14/2/9 11/3/9
f 1/12/10 5/7/10 12/7/10 13/12/10
f 20/2/11 18/12/11 19/7/11 17/6/11
f 5/7/12 7/6/12 11/6/12 12/7/12
f 25/12/13 26/12/13 16/17/13 21/16/13
f 11/3/9 14/2/9 20/2/9 17/3/9
f 13/12/10 12/7/10 19/7/10 18/12/10
f 12/7/12 11/6/12 17/6/12 19/7/12
f 29/2/14 26/12/14 24/12/14 27/2/14
f 26/12/15 29/2/15 15/14/15 16/17/15
f 23/12/16 24/12/16 26/12/16 25/12/16
f 29/2/17 30/2/17 22/15/17 15/14/17
f 27/2/18 28/2/18 30/2/18 29/2/18
f 30/2/19 25/12/19 21/16/19 22/15/19
f 28/2/12 27/2/12 24/12/12 23/12/12
usemtl ScreenMat
f 15/14/8 22/15/8 21/16/8 16/17/8
