# Blender 4.0.2
# www.blender.org
mtllib pod_door.mtl
o Door
v -0.000001 -4.000000 -1.803623
v -0.174827 -4.000000 -1.795034
v -0.347969 -4.000000 -1.769351
v -0.517760 -4.000000 -1.726821
v -0.682564 -4.000000 -1.667853
v -0.840795 -4.000000 -1.593015
v -0.990929 -4.000000 -1.503028
v -1.131520 -4.000000 -1.398759
v -1.261213 -4.000000 -1.281212
v 1.261211 -4.000000 -1.281212
v 1.131517 -4.000000 -1.398759
v 0.990927 -4.000000 -1.503028
v 0.840793 -4.000000 -1.593015
v 0.682562 -4.000000 -1.667853
v 0.517757 -4.000000 -1.726821
v 0.347966 -4.000000 -1.769351
v 0.174824 -4.000000 -1.795034
v -0.000001 -4.000000 -1.980000
v -0.196036 -4.000000 -1.970369
v -0.390182 -4.000000 -1.941571
v -0.580571 -4.000000 -1.893881
v -0.765368 -4.000000 -1.827759
v -0.942795 -4.000000 -1.743842
v -1.111142 -4.000000 -1.642939
v -1.268788 -4.000000 -1.526021
v -1.414215 -4.000000 -1.394214
v 1.414212 -4.000000 -1.394214
v 1.268785 -4.000000 -1.526021
v 1.111139 -4.000000 -1.642939
v 0.942792 -4.000000 -1.743842
v 0.765366 -4.000000 -1.827759
v 0.580568 -4.000000 -1.893881
v 0.390179 -4.000000 -1.941571
v 0.196033 -4.000000 -1.970369
v -0.196034 0.720462 -1.970369
v -0.390180 0.720463 -1.941571
v -0.580569 0.720463 -1.893881
v -0.765367 0.720463 -1.827759
v -0.942793 0.720463 -1.743842
v -1.111140 0.720463 -1.642939
v -1.268786 0.720463 -1.526021
v -1.414213 0.720463 -1.394214
v 1.414214 0.720462 -1.394214
v 1.268787 0.720462 -1.526021
v 1.111141 0.720462 -1.642939
v 0.942794 0.720462 -1.743842
v 0.765367 0.720462 -1.827759
v 0.580570 0.720462 -1.893881
v 0.390181 0.720462 -1.941571
v 0.196035 0.720462 -1.970369
v 0.000000 0.720462 -1.980000
v -1.131517 0.721205 -1.398759
v -1.261211 0.721205 -1.281212
v 0.682564 0.721205 -1.667853
v 0.517760 0.721205 -1.726821
v 0.000001 0.721205 -1.803623
v -0.174825 0.721205 -1.795034
v 0.347969 0.721205 -1.769351
v 0.174827 0.721205 -1.795034
v -0.347966 0.721205 -1.769351
v -0.517757 0.721205 -1.726821
v 1.261213 0.721204 -1.281212
v -0.682562 0.721205 -1.667853
v 1.131520 0.721204 -1.398759
v -0.840793 0.721205 -1.593015
v 0.990929 0.721204 -1.503028
v -0.990927 0.721205 -1.503028
v 0.840795 0.721204 -1.593015
vn -0.0000 -1.0000 -0.0000
vn 0.0491 -0.0000 -0.9988
vn 0.1467 -0.0000 -0.9892
vn 0.2430 -0.0000 -0.9700
vn 0.3369 -0.0000 -0.9415
vn 0.4276 -0.0000 -0.9040
vn 0.5141 -0.0000 -0.8577
vn 0.5957 -0.0000 -0.8032
vn 0.6716 -0.0000 -0.7410
vn -0.6716 -0.0000 -0.7410
vn -0.5957 -0.0000 -0.8032
vn -0.5141 -0.0000 -0.8577
vn -0.4276 -0.0000 -0.9040
vn -0.3369 -0.0000 -0.9415
vn -0.2430 -0.0000 -0.9700
vn -0.1467 -0.0000 -0.9892
vn -0.0491 -0.0000 -0.9988
vn -0.4276 -0.0000 0.9040
vn 0.5957 -0.0000 0.8032
vn -0.5141 -0.0000 0.8577
vn 0.5141 -0.0000 0.8577
vn -0.5957 -0.0000 0.8032
vn 0.4276 -0.0000 0.9040
vn -0.6716 -0.0000 0.7410
vn 0.3369 -0.0000 0.9415
vn 0.2430 -0.0000 0.9700
vn -0.0491 -0.0000 0.9988
vn 0.1467 -0.0000 0.9892
vn -0.1467 -0.0000 0.9892
vn -0.2430 -0.0000 0.9700
vn 0.0491 -0.0000 0.9988
vn -0.3369 -0.0000 0.9415
vn 0.6716 -0.0000 0.7410
vn 0.5941 -0.0000 0.8044
vn 0.0027 1.0000 -0.0029
vn 0.0024 1.0000 -0.0032
vn 0.0021 1.0000 -0.0035
vn 0.0018 1.0000 -0.0037
vn 0.0014 1.0000 -0.0039
vn 0.0010 1.0000 -0.0041
vn 0.0006 1.0000 -0.0042
vn 0.0002 1.0000 -0.0042
vn -0.0002 1.0000 -0.0042
vn -0.0006 1.0000 -0.0042
vn -0.0010 1.0000 -0.0041
vn -0.0014 1.0000 -0.0039
vn -0.0018 1.0000 -0.0037
vn -0.0021 1.0000 -0.0035
vn -0.0024 1.0000 -0.0032
vn -0.0027 1.0000 -0.0029
vn -0.5941 -0.0000 0.8044
vt 1.000000 1.000000
vt 0.984375 1.000000
vt 0.984375 1.000000
vt 0.968750 1.000000
vt 0.953125 1.000000
vt 0.953125 1.000000
vt 0.937500 1.000000
vt 0.921875 1.000000
vt 0.906250 1.000000
vt 0.906250 1.000000
vt 0.890625 1.000000
vt 0.875000 1.000000
vt 0.125000 1.000000
vt 0.109375 1.000000
vt 0.093750 1.000000
vt 0.093750 1.000000
vt 0.078125 1.000000
vt 0.062500 1.000000
vt 0.046875 1.000000
vt 0.031250 1.000000
vt 0.015625 1.000000
vt 0.000000 1.000000
vt 0.015625 0.704971
vt 0.000000 0.704971
vt 0.031250 0.704971
vt 0.046875 0.704971
vt 0.062500 0.704971
vt 0.078125 0.704971
vt 0.093750 0.704971
vt 0.109375 0.704971
vt 0.125000 0.704971
vt 0.890625 0.704971
vt 0.875000 0.704971
vt 0.906250 0.704971
vt 0.921875 0.704971
vt 0.937500 0.704971
vt 0.953125 0.704971
vt 0.968750 0.704971
vt 0.984375 0.704971
vt 1.000000 0.704971
vt 0.109375 1.000000
vt 0.046875 1.000000
s 0
f 18/1/1 1/1/1 2/2/1 19/3/1
f 19/3/1 2/2/1 3/4/1 20/4/1
f 20/4/1 3/4/1 4/5/1 21/6/1
f 21/6/1 4/5/1 5/7/1 22/7/1
f 22/7/1 5/7/1 6/8/1 23/8/1
f 23/8/1 6/8/1 7/9/1 24/10/1
f 24/10/1 7/9/1 8/11/1 25/11/1
f 25/11/1 8/11/1 9/12/1 26/12/1
f 27/13/1 10/13/1 11/14/1 28/14/1
f 28/14/1 11/14/1 12/15/1 29/16/1
f 29/16/1 12/15/1 13/17/1 30/17/1
f 30/17/1 13/17/1 14/18/1 31/18/1
f 31/18/1 14/18/1 15/19/1 32/19/1
f 32/19/1 15/19/1 16/20/1 33/20/1
f 33/20/1 16/20/1 17/21/1 34/21/1
f 34/21/1 17/21/1 1/22/1 18/22/1
f 50/23/2 34/21/2 18/22/2 51/24/2
f 49/25/3 33/20/3 34/21/3 50/23/3
f 48/26/4 32/19/4 33/20/4 49/25/4
f 47/27/5 31/18/5 32/19/5 48/26/5
f 46/28/6 30/17/6 31/18/6 47/27/6
f 45/29/7 29/16/7 30/17/7 46/28/7
f 44/30/8 28/14/8 29/16/8 45/29/8
f 43/31/9 27/13/9 28/14/9 44/30/9
f 41/32/10 25/11/10 26/12/10 42/33/10
f 40/34/11 24/10/11 25/11/11 41/32/11
f 39/35/12 23/8/12 24/10/12 40/34/12
f 38/36/13 22/7/13 23/8/13 39/35/13
f 37/37/14 21/6/14 22/7/14 38/36/14
f 36/38/15 20/4/15 21/6/15 37/37/15
f 35/39/16 19/3/16 20/4/16 36/38/16
f 51/40/17 18/1/17 19/3/17 35/39/17
f 14/18/18 13/17/18 68/17/18 54/18/18
f 8/11/19 7/9/19 67/9/19 52/11/19
f 13/17/20 12/15/20 66/15/20 68/17/20
f 7/9/21 6/8/21 65/8/21 67/9/21
f 12/15/22 11/14/22 64/41/22 66/15/22
f 6/8/23 5/7/23 63/7/23 65/8/23
f 11/14/24 10/13/24 62/13/24 64/41/24
f 5/7/25 4/5/25 61/5/25 63/7/25
f 4/5/26 3/4/26 60/4/26 61/5/26
f 1/22/27 17/21/27 59/21/27 56/22/27
f 3/4/28 2/2/28 57/2/28 60/4/28
f 17/21/29 16/20/29 58/20/29 59/21/29
f 16/20/30 15/19/30 55/42/30 58/20/30
f 2/2/31 1/1/31 56/1/31 57/2/31
f 15/19/32 14/18/32 54/18/32 55/42/32
f 9/12/33 8/11/33 52/11/33 53/12/33
f 27/13/34 43/31/34 62/13/34 10/13/34
f 44/30/35 64/41/35 62/13/35 43/31/35
f 45/29/36 66/15/36 64/41/36 44/30/36
f 46/28/37 68/17/37 66/15/37 45/29/37
f 47/27/38 54/18/38 68/17/38 46/28/38
f 48/26/39 55/42/39 54/18/39 47/27/39
f 49/25/40 58/20/40 55/42/40 48/26/40
f 50/23/41 59/21/41 58/20/41 49/25/41
f 51/24/42 56/22/42 59/21/42 50/23/42
f 35/39/43 57/2/43 56/1/43 51/24/43
f 36/38/44 60/4/44 57/2/44 35/39/44
f 37/37/45 61/5/45 60/4/45 36/38/45
f 38/36/46 63/7/46 61/5/46 37/37/46
f 39/35/47 65/8/47 63/7/47 38/36/47
f 40/34/48 67/9/48 65/8/48 39/35/48
f 41/32/49 52/11/49 67/9/49 40/34/49
f 42/33/50 53/12/50 52/11/50 41/32/50
f 9/12/51 53/12/51 42/33/51 26/12/51
