# Blender 4.0.2
# www.blender.org
mtllib safe_case.mtl
o Cube
v 1.000000 1.000000 -1.000000
v 1.000000 -1.000000 -1.000000
v 1.000000 1.000000 1.000000
v 1.000000 -1.000000 1.000000
v -1.000000 1.000000 -1.000000
v -1.000000 -1.000000 -1.000000
v -1.000000 1.000000 1.000000
v -1.000000 -1.000000 1.000000
v -0.791407 -0.791407 1.000000
v -0.791407 0.791407 1.000000
v 0.791407 0.791407 1.000000
v 0.791407 -0.791407 1.000000
v -0.791407 -0.791407 -0.662658
v -0.791407 0.791407 -0.662658
v 0.791407 0.791407 -0.662658
v 0.791407 -0.791407 -0.662658
vn -0.0000 1.0000 -0.0000
vn -0.0000 -0.0000 1.0000
vn -1.0000 -0.0000 -0.0000
vn -0.0000 -1.0000 -0.0000
vn 1.0000 -0.0000 -0.0000
vn -0.0000 -0.0000 -1.0000
vt 0.625000 0.500000
vt 0.875000 0.500000
vt 0.875000 0.750000
vt 0.625000 0.750000
vt 0.375000 0.000000
vt 0.625000 0.000000
vt 0.625000 0.250000
vt 0.375000 0.250000
vt 0.125000 0.500000
vt 0.375000 0.500000
vt 0.375000 0.750000
vt 0.125000 0.750000
vt 0.625000 1.000000
vt 0.375000 1.000000
s 0
usemtl Material
f 1/1/1 5/2/1 7/3/1 3/4/1
f 3/4/2 7/3/2 10/3/2 11/4/2
f 8/5/3 7/6/3 5/7/3 6/8/3
f 6/9/4 2/10/4 4/11/4 8/12/4
f 2/10/5 1/1/5 3/4/5 4/11/5
f 6/8/6 5/7/6 1/1/6 2/10/6
f 9/12/1 12/11/1 16/11/1 13/12/1
f 4/11/2 3/4/2 11/4/2 12/11/2
f 7/6/2 8/5/2 9/5/2 10/6/2
f 8/12/2 4/11/2 12/11/2 9/12/2
f 16/11/2 15/4/2 14/13/2 13/14/2
f 12/11/3 11/4/3 15/4/3 16/11/3
f 11/4/4 10/3/4 14/3/4 15/4/4
f 10/6/5 9/5/5 13/5/5 14/6/5
