# Blender 4.0.2
# www.blender.org
mtllib shelf.mtl
o Cube.004
v 0.800000 6.600000 -2.400000
v 0.800000 6.400000 -2.400000
v 0.800000 6.600000 2.400000
v 0.800000 6.400000 2.400000
v -0.800000 6.600000 -2.400000
v -0.800000 6.400000 -2.400000
v -0.800000 6.600000 2.400000
v -0.800000 6.400000 2.400000
v 0.800000 0.600000 -2.400000
v 0.800000 0.400000 -2.400000
v 0.800000 0.600000 2.400000
v 0.800000 0.400000 2.400000
v -0.800000 0.600000 -2.400000
v -0.800000 0.400000 -2.400000
v -0.800000 0.600000 2.400000
v -0.800000 0.400000 2.400000
v 0.800000 2.100000 -2.400000
v 0.800000 1.900000 -2.400000
v 0.800000 2.100000 2.400000
v 0.800000 1.900000 2.400000
v -0.800000 2.100000 -2.400000
v -0.800000 1.900000 -2.400000
v -0.800000 2.100000 2.400000
v -0.800000 1.900000 2.400000
v 0.800000 5.100000 -2.400000
v 0.800000 4.900000 -2.400000
v 0.800000 5.100000 2.400000
v 0.800000 4.900000 2.400000
v -0.800000 5.100000 -2.400000
v -0.800000 4.900000 -2.400000
v -0.800000 5.100000 2.400000
v -0.800000 4.900000 2.400000
v 0.800000 3.600000 -2.400000
v 0.800000 3.400000 -2.400000
v 0.800000 3.600000 2.400000
v 0.800000 3.400000 2.400000
v -0.800000 3.600000 -2.400000
v -0.800000 3.400000 -2.400000
v -0.800000 3.600000 2.400000
v -0.800000 3.400000 2.400000
v -0.850000 0.000000 -2.350000
v -0.850000 7.000000 -2.350000
v -0.850000 0.000000 -2.550000
v -0.850000 7.000000 -2.550000
v 1.050000 0.000000 -2.350000
v 1.050000 7.000000 -2.350000
v 1.050000 0.000000 -2.550000
v 1.050000 7.000000 -2.550000
v -0.850000 0.000000 2.550000
v -0.850000 7.000000 2.550000
v -0.850000 0.000000 2.350000
v -0.850000 7.000000 2.350000
v 1.050000 0.000000 2.550000
v 1.050000 7.000000 2.550000
v 1.050000 0.000000 2.350000
v 1.050000 7.000000 2.350000
vn -0.0000 1.0000 -0.0000
vn -0.0000 -0.0000 1.0000
vn -1.0000 -0.0000 -0.0000
vn -0.0000 -1.0000 -0.0000
vn 1.0000 -0.0000 -0.0000
vn -0.0000 -0.0000 -1.0000
vt 0.625000 0.500000
vt 0.875000 0.500000
vt 0.875000 0.750000
vt 0.625000 0.750000
vt 0.375000 0.750000
vt 0.625000 1.000000
vt 0.375000 1.000000
vt 0.375000 0.000000
vt 0.625000 0.000000
vt 0.625000 0.250000
vt 0.375000 0.250000
vt 0.125000 0.500000
vt 0.375000 0.500000
vt 0.125000 0.750000
s 0
usemtl shelfmat
f 1/1/1 5/2/1 7/3/1 3/4/1
f 4/5/2 3/4/2 7/6/2 8/7/2
f 8/8/3 7/9/3 5/10/3 6/11/3
f 6/12/4 2/13/4 4/5/4 8/14/4
f 2/13/5 1/1/5 3/4/5 4/5/5
f 6/11/6 5/10/6 1/1/6 2/13/6
f 9/1/1 13/2/1 15/3/1 11/4/1
f 12/5/2 11/4/2 15/6/2 16/7/2
f 16/8/3 15/9/3 13/10/3 14/11/3
f 14/12/4 10/13/4 12/5/4 16/14/4
f 10/13/5 9/1/5 11/4/5 12/5/5
f 14/11/6 13/10/6 9/1/6 10/13/6
f 17/1/1 21/2/1 23/3/1 19/4/1
f 20/5/2 19/4/2 23/6/2 24/7/2
f 24/8/3 23/9/3 21/10/3 22/11/3
f 22/12/4 18/13/4 20/5/4 24/14/4
f 18/13/5 17/1/5 19/4/5 20/5/5
f 22/11/6 21/10/6 17/1/6 18/13/6
f 25/1/1 29/2/1 31/3/1 27/4/1
f 28/5/2 27/4/2 31/6/2 32/7/2
f 32/8/3 31/9/3 29/10/3 30/11/3
f 30/12/4 26/13/4 28/5/4 32/14/4
f 26/13/5 25/1/5 27/4/5 28/5/5
f 30/11/6 29/10/6 25/1/6 26/13/6
f 33/1/1 37/2/1 39/3/1 35/4/1
f 36/5/2 35/4/2 39/6/2 40/7/2
f 40/8/3 39/9/3 37/10/3 38/11/3
f 38/12/4 34/13/4 36/5/4 40/14/4
f 34/13/5 33/1/5 35/4/5 36/5/5
f 38/11/6 37/10/6 33/1/6 34/13/6
f 41/8/3 42/9/3 44/10/3 43/11/3
f 43/11/6 44/10/6 48/1/6 47/13/6
f 47/13/5 48/1/5 46/4/5 45/5/5
f 45/5/2 46/4/2 42/6/2 41/7/2
f 43/12/4 47/13/4 45/5/4 41/14/4
f 48/1/1 44/2/1 42/3/1 46/4/1
f 49/8/3 50/9/3 52/10/3 51/11/3
f 51/11/6 52/10/6 56/1/6 55/13/6
f 55/13/5 56/1/5 54/4/5 53/5/5
f 53/5/2 54/4/2 50/6/2 49/7/2
f 51/12/4 55/13/4 53/5/4 49/14/4
f 56/1/1 52/2/1 50/3/1 54/4/1
