# Blender 4.0.2
# www.blender.org
mtllib speaker.mtl
o Cube
v 0.800000 1.500000 -1.000000
v 0.800000 -1.500000 -1.000000
v 0.800000 1.500000 1.000000
v 0.800000 -1.500000 1.000000
v -0.800000 1.320000 -0.880000
v -0.800000 -1.320000 -0.880000
v -0.800000 1.320000 0.880000
v -0.800000 -1.320000 0.880000
v 0.800000 1.337490 -0.891660
v 0.800000 -1.337490 -0.891660
v 0.800000 1.337490 0.891660
v 0.800000 -1.337490 0.891660
v 0.744482 1.337490 -0.891660
v 0.744482 -1.337490 -0.891660
v 0.744482 1.337490 0.891660
v 0.744482 -1.337490 0.891660
v 0.724545 -0.368999 -0.577072
v 0.724545 -0.608030 -0.624618
v 0.724545 -0.847061 -0.577072
v 0.724545 -1.185102 -0.239031
v 0.765077 -0.030958 -0.220836
v 0.799438 -0.166358 -0.408052
v 0.822398 -0.368999 -0.533145
v 0.830460 -0.608030 -0.577072
v 0.822398 -0.847061 -0.533145
v 0.799438 -1.049702 -0.408052
v 0.765077 -1.185102 -0.220836
v 0.799438 -0.030958 -0.169021
v 0.862929 -0.166358 -0.312309
v 0.905352 -0.368999 -0.408052
v 0.920250 -0.608030 -0.441672
v 0.905352 -0.847061 -0.408052
v 0.862929 -1.049702 -0.312309
v 0.799438 -1.185102 -0.169021
v 0.822398 -0.030958 -0.091473
v 0.905352 -0.166358 -0.169020
v 0.960781 -0.368999 -0.220836
v 0.980245 -0.608030 -0.239031
v 0.960781 -0.847061 -0.220836
v 0.905352 -1.049702 -0.169020
v 0.822398 -1.185102 -0.091473
v 0.830460 -0.030958 0.000000
v 0.920249 -0.166358 0.000000
v 0.980245 -0.368999 0.000000
v 1.001313 -0.608030 0.000000
v 0.980245 -0.847061 0.000000
v 0.920249 -1.049702 0.000000
v 0.830460 -1.185102 0.000000
v 0.822398 -0.030958 0.091473
v 0.905352 -0.166358 0.169021
v 0.960781 -0.368999 0.220836
v 0.980245 -0.608030 0.239031
v 0.960781 -0.847061 0.220836
v 0.905352 -1.049702 0.169021
v 0.822398 -1.185102 0.091473
v 0.799438 -0.030958 0.169021
v 0.862929 -0.166358 0.312309
v 0.905352 -0.368999 0.408052
v 0.920249 -0.608030 0.441672
v 0.905352 -0.847061 0.408052
v 0.862929 -1.049702 0.312309
v 0.799438 -1.185102 0.169021
v 0.765077 -0.030958 0.220836
v 0.799438 -0.166358 0.408052
v 0.822397 -0.368999 0.533145
v 0.830460 -0.608030 0.577072
v 0.822397 -0.847061 0.533145
v 0.799438 -1.049702 0.408052
v 0.765077 -1.185102 0.220836
v 0.724545 -0.030958 0.239031
v 0.724545 -0.166358 0.441672
v 0.724545 -0.368999 0.577072
v 0.724545 -0.608030 0.624618
v 0.724545 -0.847061 0.577072
v 0.724545 -1.049702 0.441672
v 0.724545 -1.185102 0.239031
v 0.724545 -1.232649 0.000000
v 0.724545 0.016588 0.000000
v 0.724546 -0.030958 -0.239031
v 0.724546 -0.166358 -0.441672
v 0.724546 -1.049702 -0.441672
v 0.724545 0.883425 -0.432954
v 0.724545 0.704089 -0.468627
v 0.724545 0.524754 -0.432954
v 0.724545 0.271135 -0.179336
v 0.754955 1.137044 -0.165685
v 0.780734 1.035458 -0.306145
v 0.797960 0.883425 -0.399998
v 0.804009 0.704089 -0.432954
v 0.797960 0.524754 -0.399998
v 0.780734 0.372720 -0.306145
v 0.754955 0.271135 -0.165685
v 0.780735 1.137044 -0.126809
v 0.828369 1.035458 -0.234313
v 0.860198 0.883425 -0.306145
v 0.871375 0.704089 -0.331369
v 0.860198 0.524754 -0.306145
v 0.828369 0.372720 -0.234313
v 0.780735 0.271135 -0.126809
v 0.797960 1.137044 -0.068629
v 0.860198 1.035458 -0.126809
v 0.901784 0.883425 -0.165684
v 0.916387 0.704089 -0.179336
v 0.901784 0.524754 -0.165684
v 0.860198 0.372720 -0.126809
v 0.797960 0.271135 -0.068629
v 0.804009 1.137044 0.000000
v 0.871375 1.035458 0.000000
v 0.916387 0.883425 0.000000
v 0.932193 0.704089 0.000000
v 0.916387 0.524754 0.000000
v 0.871375 0.372720 0.000000
v 0.804009 0.271135 0.000000
v 0.797960 1.137044 0.068629
v 0.860198 1.035458 0.126809
v 0.901784 0.883425 0.165685
v 0.916387 0.704089 0.179336
v 0.901784 0.524754 0.165685
v 0.860198 0.372720 0.126809
v 0.797960 0.271135 0.068629
v 0.780734 1.137044 0.126809
v 0.828369 1.035458 0.234313
v 0.860198 0.883425 0.306145
v 0.871374 0.704089 0.331369
v 0.860198 0.524754 0.306145
v 0.828369 0.372720 0.234313
v 0.780734 0.271135 0.126809
v 0.754955 1.137044 0.165685
v 0.780734 1.035458 0.306145
v 0.797960 0.883425 0.399998
v 0.804009 0.704089 0.432955
v 0.797960 0.524754 0.399998
v 0.780734 0.372720 0.306145
v 0.754955 0.271135 0.165685
v 0.724545 1.137044 0.179336
v 0.724545 1.035458 0.331369
v 0.724545 0.883425 0.432954
v 0.724545 0.704089 0.468627
v 0.724545 0.524754 0.432954
v 0.724545 0.372720 0.331369
v 0.724545 0.271135 0.179336
v 0.724545 0.235463 0.000000
v 0.724545 1.172716 0.000000
v 0.724546 1.137044 -0.179336
v 0.724546 1.035458 -0.331369
v 0.724546 0.372720 -0.331369
vn -0.1118 0.9937 -0.0000
vn -0.0748 -0.0000 0.9972
vn -1.0000 -0.0000 -0.0000
vn -0.1118 -0.9937 -0.0000
vn 1.0000 -0.0000 -0.0000
vn -0.0748 -0.0000 -0.9972
vn -0.0000 -1.0000 -0.0000
vn -0.0000 -0.0000 1.0000
vn -0.0000 1.0000 -0.0000
vn -0.0000 -0.0000 -1.0000
vn 0.0872 -0.9770 -0.1943
vn 0.3497 -0.5205 -0.7790
vn 0.4030 0.1786 -0.8976
vn 0.2420 0.8068 -0.5391
vn 0.2420 -0.8068 -0.5391
vn 0.4030 -0.1786 -0.8976
vn 0.3497 0.5205 -0.7790
vn 0.0872 0.9770 -0.1943
vn 0.5965 0.6983 -0.3956
vn 0.5965 -0.6983 -0.3956
vn 0.8265 -0.1286 -0.5481
vn 0.7641 0.3994 -0.5067
vn 0.2432 0.9565 -0.1613
vn 0.2432 -0.9565 -0.1613
vn 0.7641 -0.3994 -0.5067
vn 0.8265 0.1286 -0.5481
vn 0.7671 -0.6000 -0.2271
vn 0.9541 -0.0992 -0.2825
vn 0.9092 0.3175 -0.2692
vn 0.3537 0.9295 -0.1047
vn 0.3537 -0.9295 -0.1047
vn 0.9092 -0.3175 -0.2692
vn 0.9541 0.0992 -0.2825
vn 0.7671 0.6000 -0.2271
vn 0.4093 0.9117 -0.0361
vn 0.4093 -0.9117 -0.0361
vn 0.9555 -0.2829 -0.0842
vn 0.9923 0.0875 -0.0875
vn 0.8312 0.5512 -0.0733
vn 0.8312 -0.5512 -0.0733
vn 0.9923 -0.0875 -0.0875
vn 0.9555 0.2829 -0.0842
vn 0.9555 -0.2829 0.0842
vn 0.9923 0.0875 0.0875
vn 0.8312 0.5512 0.0733
vn 0.8312 -0.5512 0.0733
vn 0.9923 -0.0875 0.0875
vn 0.9555 0.2829 0.0842
vn 0.4093 0.9117 0.0361
vn 0.4093 -0.9117 0.0361
vn 0.7671 -0.6000 0.2271
vn 0.9541 -0.0992 0.2825
vn 0.9092 0.3175 0.2692
vn 0.3537 0.9295 0.1047
vn 0.3537 -0.9295 0.1047
vn 0.9092 -0.3175 0.2692
vn 0.9541 0.0992 0.2825
vn 0.7671 0.6000 0.2271
vn 0.8265 -0.1286 0.5481
vn 0.7641 0.3994 0.5067
vn 0.2432 0.9565 0.1613
vn 0.2432 -0.9565 0.1613
vn 0.7641 -0.3994 0.5067
vn 0.8265 0.1286 0.5481
vn 0.5965 0.6983 0.3956
vn 0.5965 -0.6983 0.3956
vn 0.0872 -0.9770 0.1943
vn 0.3497 -0.5205 0.7790
vn 0.4030 0.1786 0.8976
vn 0.2420 0.8068 0.5391
vn 0.2420 -0.8068 0.5391
vn 0.4030 -0.1786 0.8976
vn 0.3497 0.5205 0.7790
vn 0.0872 0.9770 0.1943
vt 0.625000 0.500000
vt 0.875000 0.500000
vt 0.875000 0.750000
vt 0.625000 0.750000
vt 0.375000 0.750000
vt 0.625000 1.000000
vt 0.375000 1.000000
vt 0.375000 0.000000
vt 0.625000 0.000000
vt 0.625000 0.250000
vt 0.375000 0.250000
vt 0.125000 0.500000
vt 0.375000 0.500000
vt 0.125000 0.750000
vt 0.718750 0.000000
vt 0.750000 0.125000
vt 0.687500 0.125000
vt 0.750000 0.250000
vt 0.750000 0.375000
vt 0.687500 0.375000
vt 0.687500 0.250000
vt 0.750000 0.500000
vt 0.750000 0.625000
vt 0.687500 0.625000
vt 0.687500 0.500000
vt 0.750000 0.750000
vt 0.750000 0.875000
vt 0.687500 0.875000
vt 0.687500 0.750000
vt 0.718750 1.000000
vt 0.625000 0.875000
vt 0.625000 0.750000
vt 0.625000 0.125000
vt 0.625000 0.375000
vt 0.625000 0.625000
vt 0.656250 1.000000
vt 0.656250 0.000000
vt 0.562500 0.250000
vt 0.562500 0.125000
vt 0.562500 0.500000
vt 0.562500 0.375000
vt 0.562500 0.750000
vt 0.562500 0.625000
vt 0.593750 1.000000
vt 0.562500 0.875000
vt 0.593750 0.000000
vt 0.531250 1.000000
vt 0.500000 0.875000
vt 0.531250 0.000000
vt 0.500000 0.125000
vt 0.500000 0.375000
vt 0.500000 0.250000
vt 0.500000 0.625000
vt 0.500000 0.500000
vt 0.500000 0.750000
vt 0.437500 0.375000
vt 0.437500 0.250000
vt 0.437500 0.625000
vt 0.437500 0.500000
vt 0.437500 0.875000
vt 0.437500 0.750000
vt 0.437500 0.125000
vt 0.468750 1.000000
vt 0.468750 0.000000
vt 0.375000 0.250000
vt 0.375000 0.125000
vt 0.375000 0.500000
vt 0.375000 0.375000
vt 0.375000 0.750000
vt 0.375000 0.625000
vt 0.406250 1.000000
vt 0.375000 0.875000
vt 0.406250 0.000000
vt 0.312500 0.500000
vt 0.312500 0.375000
vt 0.312500 0.750000
vt 0.312500 0.625000
vt 0.343750 1.000000
vt 0.312500 0.875000
vt 0.343750 0.000000
vt 0.312500 0.125000
vt 0.312500 0.250000
vt 0.281250 0.000000
vt 0.250000 0.125000
vt 0.250000 0.375000
vt 0.250000 0.250000
vt 0.250000 0.625000
vt 0.250000 0.500000
vt 0.250000 0.875000
vt 0.250000 0.750000
vt 0.281250 1.000000
s 0
usemtl CaseMat
f 1/1/1 5/2/1 7/3/1 3/4/1
f 4/5/2 3/4/2 7/6/2 8/7/2
f 8/8/3 7/9/3 5/10/3 6/11/3
f 6/12/4 2/13/4 4/5/4 8/14/4
f 1/1/5 3/4/5 11/4/5 9/1/5
f 6/11/6 5/10/6 1/1/6 2/13/6
f 9/1/7 11/4/7 15/4/7 13/1/7
f 3/4/5 4/5/5 12/5/5 11/4/5
f 2/13/5 1/1/5 9/1/5 10/13/5
f 4/5/5 2/13/5 10/13/5 12/5/5
f 10/13/8 9/1/8 13/1/8 14/13/8
f 12/5/9 10/13/9 14/13/9 16/5/9
f 11/4/10 12/5/10 16/5/10 15/4/10
usemtl SpeakerMat
f 77/15/11 20/16/11 27/17/11
f 81/18/12 19/19/12 25/20/12 26/21/12
f 18/22/13 17/23/13 23/24/13 24/25/13
f 80/26/14 79/27/14 21/28/14 22/29/14
f 20/16/15 81/18/15 26/21/15 27/17/15
f 19/19/16 18/22/16 24/25/16 25/20/16
f 17/23/17 80/26/17 22/29/17 23/24/17
f 79/27/18 78/30/18 21/28/18
f 22/29/19 21/28/19 28/31/19 29/32/19
f 27/17/20 26/21/20 33/10/20 34/33/20
f 25/20/21 24/25/21 31/1/21 32/34/21
f 23/24/22 22/29/22 29/32/22 30/35/22
f 21/28/23 78/36/23 28/31/23
f 77/37/24 27/17/24 34/33/24
f 26/21/25 25/20/25 32/34/25 33/10/25
f 24/25/26 23/24/26 30/35/26 31/1/26
f 34/33/27 33/10/27 40/38/27 41/39/27
f 32/34/28 31/1/28 38/40/28 39/41/28
f 30/35/29 29/32/29 36/42/29 37/43/29
f 28/31/30 78/44/30 35/45/30
f 77/46/31 34/33/31 41/39/31
f 33/10/32 32/34/32 39/41/32 40/38/32
f 31/1/33 30/35/33 37/43/33 38/40/33
f 29/32/34 28/31/34 35/45/34 36/42/34
f 35/45/35 78/47/35 42/48/35
f 77/49/36 41/39/36 48/50/36
f 40/38/37 39/41/37 46/51/37 47/52/37
f 38/40/38 37/43/38 44/53/38 45/54/38
f 36/42/39 35/45/39 42/48/39 43/55/39
f 41/39/40 40/38/40 47/52/40 48/50/40
f 39/41/41 38/40/41 45/54/41 46/51/41
f 37/43/42 36/42/42 43/55/42 44/53/42
f 47/52/43 46/51/43 53/56/43 54/57/43
f 45/54/44 44/53/44 51/58/44 52/59/44
f 43/55/45 42/48/45 49/60/45 50/61/45
f 48/50/46 47/52/46 54/57/46 55/62/46
f 46/51/47 45/54/47 52/59/47 53/56/47
f 44/53/48 43/55/48 50/61/48 51/58/48
f 42/48/49 78/63/49 49/60/49
f 77/64/50 48/50/50 55/62/50
f 55/62/51 54/57/51 61/65/51 62/66/51
f 53/56/52 52/59/52 59/67/52 60/68/52
f 51/58/53 50/61/53 57/69/53 58/70/53
f 49/60/54 78/71/54 56/72/54
f 77/73/55 55/62/55 62/66/55
f 54/57/56 53/56/56 60/68/56 61/65/56
f 52/59/57 51/58/57 58/70/57 59/67/57
f 50/61/58 49/60/58 56/72/58 57/69/58
f 60/68/59 59/67/59 66/74/59 67/75/59
f 58/70/60 57/69/60 64/76/60 65/77/60
f 56/72/61 78/78/61 63/79/61
f 77/80/62 62/66/62 69/81/62
f 61/65/63 60/68/63 67/75/63 68/82/63
f 59/67/64 58/70/64 65/77/64 66/74/64
f 57/69/65 56/72/65 63/79/65 64/76/65
f 62/66/66 61/65/66 68/82/66 69/81/66
f 77/83/67 69/81/67 76/84/67
f 68/82/68 67/75/68 74/85/68 75/86/68
f 66/74/69 65/77/69 72/87/69 73/88/69
f 64/76/70 63/79/70 70/89/70 71/90/70
f 69/81/71 68/82/71 75/86/71 76/84/71
f 67/75/72 66/74/72 73/88/72 74/85/72
f 65/77/73 64/76/73 71/90/73 72/87/73
f 63/79/74 78/91/74 70/89/74
f 142/15/11 85/16/11 92/17/11
f 146/18/12 84/19/12 90/20/12 91/21/12
f 83/22/13 82/23/13 88/24/13 89/25/13
f 145/26/14 144/27/14 86/28/14 87/29/14
f 85/16/15 146/18/15 91/21/15 92/17/15
f 84/19/16 83/22/16 89/25/16 90/20/16
f 82/23/17 145/26/17 87/29/17 88/24/17
f 144/27/18 143/30/18 86/28/18
f 87/29/19 86/28/19 93/31/19 94/32/19
f 92/17/20 91/21/20 98/10/20 99/33/20
f 90/20/21 89/25/21 96/1/21 97/34/21
f 88/24/22 87/29/22 94/32/22 95/35/22
f 86/28/23 143/36/23 93/31/23
f 142/37/24 92/17/24 99/33/24
f 91/21/25 90/20/25 97/34/25 98/10/25
f 89/25/26 88/24/26 95/35/26 96/1/26
f 99/33/27 98/10/27 105/38/27 106/39/27
f 97/34/28 96/1/28 103/40/28 104/41/28
f 95/35/29 94/32/29 101/42/29 102/43/29
f 93/31/30 143/44/30 100/45/30
f 142/46/31 99/33/31 106/39/31
f 98/10/32 97/34/32 104/41/32 105/38/32
f 96/1/33 95/35/33 102/43/33 103/40/33
f 94/32/34 93/31/34 100/45/34 101/42/34
f 100/45/35 143/47/35 107/48/35
f 142/49/36 106/39/36 113/50/36
f 105/38/37 104/41/37 111/51/37 112/52/37
f 103/40/38 102/43/38 109/53/38 110/54/38
f 101/42/39 100/45/39 107/48/39 108/55/39
f 106/39/40 105/38/40 112/52/40 113/50/40
f 104/41/41 103/40/41 110/54/41 111/51/41
f 102/43/42 101/42/42 108/55/42 109/53/42
f 112/52/43 111/51/43 118/56/43 119/57/43
f 110/54/44 109/53/44 116/58/44 117/59/44
f 108/55/45 107/48/45 114/60/45 115/61/45
f 113/50/46 112/52/46 119/57/46 120/62/46
f 111/51/47 110/54/47 117/59/47 118/56/47
f 109/53/48 108/55/48 115/61/48 116/58/48
f 107/48/49 143/63/49 114/60/49
f 142/64/50 113/50/50 120/62/50
f 120/62/51 119/57/51 126/65/51 127/66/51
f 118/56/52 117/59/52 124/67/52 125/68/52
f 116/58/53 115/61/53 122/69/53 123/70/53
f 114/60/54 143/71/54 121/72/54
f 142/73/55 120/62/55 127/66/55
f 119/57/56 118/56/56 125/68/56 126/65/56
f 117/59/57 116/58/57 123/70/57 124/67/57
f 115/61/58 114/60/58 121/72/58 122/69/58
f 125/68/59 124/67/59 131/74/59 132/75/59
f 123/70/60 122/69/60 129/76/60 130/77/60
f 121/72/61 143/78/61 128/79/61
f 142/80/62 127/66/62 134/81/62
f 126/65/63 125/68/63 132/75/63 133/82/63
f 124/67/64 123/70/64 130/77/64 131/74/64
f 122/69/65 121/72/65 128/79/65 129/76/65
f 127/66/66 126/65/66 133/82/66 134/81/66
f 142/83/67 134/81/67 141/84/67
f 133/82/68 132/75/68 139/85/68 140/86/68
f 131/74/69 130/77/69 137/87/69 138/88/69
f 129/76/70 128/79/70 135/89/70 136/90/70
f 134/81/71 133/82/71 140/86/71 141/84/71
f 132/75/72 131/74/72 138/88/72 139/85/72
f 130/77/73 129/76/73 136/90/73 137/87/73
f 128/79/74 143/91/74 135/89/74
usemtl Material
f 14/13/5 13/1/5 15/4/5 16/5/5
