# Blender 4.0.2
# www.blender.org
mtllib tree_pot.mtl
o Cube
v 0.702832 0.891093 -0.702832
v 0.702832 -0.514570 -0.702832
v 0.702832 0.891093 0.702832
v 0.702832 -0.514570 0.702832
v -0.702832 0.891093 -0.702832
v -0.702832 -0.514570 -0.702832
v -0.702832 0.891093 0.702832
v -0.702832 -0.514570 0.702832
v 0.607577 0.891093 0.607577
v -0.607577 0.891093 0.607577
v 0.607577 0.891093 -0.607577
v -0.607577 0.891093 -0.607577
v 0.607577 0.891093 0.607577
v -0.607577 0.891093 0.607577
v 0.607577 0.891093 -0.607577
v -0.607577 0.891093 -0.607577
v 0.607577 0.891093 0.607577
v -0.607577 0.891093 0.607577
v 0.607577 0.891093 -0.607577
v -0.607577 0.891093 -0.607577
v 0.607577 0.751310 0.607577
v -0.607577 0.751310 0.607577
v 0.607577 0.751310 -0.607577
v -0.607577 0.751310 -0.607577
v 0.000000 0.179794 -0.101173
v 0.000000 1.399276 -0.101173
v 0.019738 0.179794 -0.099229
v 0.019738 1.399276 -0.099229
v 0.038717 0.179794 -0.093472
v 0.038717 1.399276 -0.093472
v 0.056209 0.179794 -0.084122
v 0.056209 1.399276 -0.084122
v 0.071540 0.179794 -0.071540
v 0.071540 1.399276 -0.071540
v 0.084122 0.179794 -0.056209
v 0.084122 1.399276 -0.056209
v 0.093472 0.179794 -0.038717
v 0.093472 1.399276 -0.038717
v 0.099229 0.179794 -0.019738
v 0.099229 1.399276 -0.019738
v 0.101173 0.179794 -0.000000
v 0.101173 1.399276 -0.000000
v 0.099229 0.179794 0.019738
v 0.099229 1.399276 0.019738
v 0.093472 0.179794 0.038717
v 0.093472 1.399276 0.038717
v 0.084122 0.179794 0.056209
v 0.084122 1.399276 0.056209
v 0.071540 0.179794 0.071540
v 0.071540 1.399276 0.071540
v 0.056209 0.179794 0.084122
v 0.056209 1.399276 0.084122
v 0.038717 0.179794 0.093472
v 0.038717 1.399276 0.093472
v 0.019738 0.179794 0.099229
v 0.019738 1.399276 0.099229
v 0.000000 0.179794 0.101173
v 0.000000 1.399276 0.101173
v -0.019738 0.179794 0.099229
v -0.019738 1.399276 0.099229
v -0.038717 0.179794 0.093472
v -0.038717 1.399276 0.093472
v -0.056209 0.179794 0.084122
v -0.056209 1.399276 0.084122
v -0.071540 0.179794 0.071540
v -0.071540 1.399276 0.071540
v -0.084122 0.179794 0.056209
v -0.084122 1.399276 0.056209
v -0.093472 0.179794 0.038717
v -0.093472 1.399276 0.038717
v -0.099229 0.179794 0.019738
v -0.099229 1.399276 0.019738
v -0.101173 0.179794 -0.000000
v -0.101173 1.399276 -0.000000
v -0.099229 0.179794 -0.019738
v -0.099229 1.399276 -0.019738
v -0.093472 0.179794 -0.038717
v -0.093472 1.399276 -0.038717
v -0.084122 0.179794 -0.056209
v -0.084122 1.399276 -0.056209
v -0.071540 0.179794 -0.071540
v -0.071540 1.399276 -0.071540
v -0.056209 0.179794 -0.084122
v -0.056209 1.399276 -0.084122
v -0.038717 0.179794 -0.093472
v -0.038717 1.399276 -0.093472
v -0.019738 0.179794 -0.099229
v -0.019738 1.399276 -0.099229
v 0.000000 1.351818 0.000000
v 0.723607 1.904599 0.525725
v -0.276388 1.904598 0.850649
v -0.894426 1.904603 0.000000
v -0.276388 1.904598 -0.850649
v 0.723607 1.904599 -0.525725
v 0.276388 2.799038 0.850649
v -0.723607 2.799038 0.525725
v -0.723607 2.799038 -0.525725
v 0.276388 2.799038 -0.850649
v 0.894426 2.799034 0.000000
v 0.000000 3.351818 0.000000
v -0.162456 1.501164 0.499995
v 0.425323 1.501164 0.309011
v 0.262869 1.826081 0.809012
v 0.850648 1.826082 0.000000
v 0.425323 1.501164 -0.309011
v -0.525730 1.501166 0.000000
v -0.688189 1.826082 0.499997
v -0.162456 1.501164 -0.499995
v -0.688189 1.826082 -0.499997
v 0.262869 1.826081 -0.809012
v 0.951058 2.351818 0.309013
v 0.951058 2.351818 -0.309013
v 0.000000 2.351818 1.000000
v 0.587786 2.351818 0.809017
v -0.951058 2.351818 0.309013
v -0.587786 2.351818 0.809017
v -0.587786 2.351818 -0.809017
v -0.951058 2.351818 -0.309013
v 0.587786 2.351818 -0.809017
v 0.000000 2.351818 -1.000000
v 0.688189 2.877554 0.499997
v -0.262869 2.877556 0.809012
v -0.850648 2.877554 0.000000
v -0.262869 2.877556 -0.809012
v 0.688189 2.877554 -0.499997
v 0.162456 3.202472 0.499995
v 0.525730 3.202470 0.000000
v -0.425323 3.202472 0.309011
v -0.425323 3.202472 -0.309011
v 0.162456 3.202472 -0.499995
vn -0.0000 1.0000 -0.0000
vn -0.0000 -0.0000 1.0000
vn -1.0000 -0.0000 -0.0000
vn -0.0000 -1.0000 -0.0000
vn 1.0000 -0.0000 -0.0000
vn -0.0000 -0.0000 -1.0000
vn 0.0980 -0.0000 -0.9952
vn 0.2903 -0.0000 -0.9569
vn 0.4714 -0.0000 -0.8819
vn 0.6344 -0.0000 -0.7730
vn 0.7730 -0.0000 -0.6344
vn 0.8819 -0.0000 -0.4714
vn 0.9569 -0.0000 -0.2903
vn 0.9952 -0.0000 -0.0980
vn 0.9952 -0.0000 0.0980
vn 0.9569 -0.0000 0.2903
vn 0.8819 -0.0000 0.4714
vn 0.7730 -0.0000 0.6344
vn 0.6344 -0.0000 0.7730
vn 0.4714 -0.0000 0.8819
vn 0.2903 -0.0000 0.9569
vn 0.0980 -0.0000 0.9952
vn -0.0980 -0.0000 0.9952
vn -0.2903 -0.0000 0.9569
vn -0.4714 -0.0000 0.8819
vn -0.6344 -0.0000 0.7730
vn -0.7730 -0.0000 0.6344
vn -0.8819 -0.0000 0.4714
vn -0.9569 -0.0000 0.2903
vn -0.9952 -0.0000 0.0980
vn -0.9952 -0.0000 -0.0980
vn -0.9569 -0.0000 -0.2903
vn -0.8819 -0.0000 -0.4714
vn -0.7730 -0.0000 -0.6344
vn -0.6344 -0.0000 -0.7730
vn -0.4714 -0.0000 -0.8819
vn -0.2903 -0.0000 -0.9569
vn -0.0980 -0.0000 -0.9952
vn 0.1024 -0.9435 0.3151
vn 0.7002 -0.6617 0.2680
vn -0.2680 -0.9435 0.1947
vn -0.2680 -0.9435 -0.1947
vn 0.1024 -0.9435 -0.3151
vn 0.9050 -0.3304 0.2680
vn 0.0247 -0.3304 0.9435
vn -0.8897 -0.3304 0.3151
vn -0.5746 -0.3304 -0.7488
vn 0.5346 -0.3304 -0.7779
vn 0.8026 -0.1256 0.5831
vn -0.3066 -0.1256 0.9435
vn -0.9921 -0.1256 -0.0000
vn -0.3066 -0.1256 -0.9435
vn 0.8026 -0.1256 -0.5831
vn 0.4089 0.6617 0.6284
vn -0.4713 0.6617 0.5831
vn -0.7002 0.6617 -0.2680
vn 0.0385 0.6617 -0.7488
vn 0.7240 0.6617 -0.1947
vn 0.2680 0.9435 -0.1947
vn 0.4911 0.7947 -0.3568
vn 0.4089 0.6617 -0.6284
vn -0.1024 0.9435 -0.3151
vn -0.1876 0.7947 -0.5773
vn -0.4713 0.6617 -0.5831
vn -0.3313 0.9435 -0.0000
vn -0.6071 0.7947 -0.0000
vn -0.7002 0.6617 0.2680
vn -0.1024 0.9435 0.3151
vn -0.1876 0.7947 0.5773
vn 0.0385 0.6617 0.7488
vn 0.2680 0.9435 0.1947
vn 0.4911 0.7947 0.3568
vn 0.7240 0.6617 0.1947
vn 0.8897 0.3304 -0.3151
vn 0.7947 0.1876 -0.5773
vn 0.5746 0.3304 -0.7488
vn -0.0247 0.3304 -0.9435
vn -0.3035 0.1876 -0.9342
vn -0.5346 0.3304 -0.7779
vn -0.9050 0.3304 -0.2680
vn -0.9822 0.1876 -0.0000
vn -0.9050 0.3304 0.2680
vn -0.5346 0.3304 0.7779
vn -0.3035 0.1876 0.9342
vn -0.0247 0.3304 0.9435
vn 0.5746 0.3304 0.7488
vn 0.7947 0.1876 0.5773
vn 0.8897 0.3304 0.3151
vn 0.3066 0.1256 -0.9435
vn 0.3035 -0.1876 -0.9342
vn 0.0247 -0.3304 -0.9435
vn -0.8026 0.1256 -0.5831
vn -0.7947 -0.1876 -0.5773
vn -0.8897 -0.3304 -0.3151
vn -0.8026 0.1256 0.5831
vn -0.7947 -0.1876 0.5773
vn -0.5746 -0.3304 0.7488
vn 0.3066 0.1256 0.9435
vn 0.3035 -0.1876 0.9342
vn 0.5346 -0.3304 0.7779
vn 0.9921 0.1256 -0.0000
vn 0.9822 -0.1876 -0.0000
vn 0.9050 -0.3304 -0.2680
vn 0.4713 -0.6617 -0.5831
vn 0.1876 -0.7947 -0.5773
vn -0.0385 -0.6617 -0.7488
vn -0.4089 -0.6617 -0.6284
vn -0.4911 -0.7947 -0.3568
vn -0.7240 -0.6617 -0.1947
vn -0.7240 -0.6617 0.1947
vn -0.4911 -0.7947 0.3568
vn -0.4089 -0.6617 0.6284
vn 0.7002 -0.6617 -0.2680
vn 0.6071 -0.7947 -0.0000
vn 0.3313 -0.9435 -0.0000
vn -0.0385 -0.6617 0.7488
vn 0.1876 -0.7947 0.5773
vn 0.4713 -0.6617 0.5831
vt 0.625000 0.250000
vt 0.625000 0.000000
vt 0.375000 0.750000
vt 0.625000 0.750000
vt 0.625000 1.000000
vt 0.375000 1.000000
vt 0.375000 0.000000
vt 0.375000 0.250000
vt 0.125000 0.500000
vt 0.375000 0.500000
vt 0.125000 0.750000
vt 0.625000 0.500000
vt 0.875000 0.500000
vt 0.875000 0.750000
vt 1.000000 0.500000
vt 1.000000 1.000000
vt 0.968750 1.000000
vt 0.968750 0.500000
vt 0.937500 1.000000
vt 0.937500 0.500000
vt 0.906250 1.000000
vt 0.906250 0.500000
vt 0.875000 1.000000
vt 0.843750 1.000000
vt 0.843750 0.500000
vt 0.812500 1.000000
vt 0.812500 0.500000
vt 0.781250 1.000000
vt 0.781250 0.500000
vt 0.750000 1.000000
vt 0.750000 0.500000
vt 0.718750 1.000000
vt 0.718750 0.500000
vt 0.687500 1.000000
vt 0.687500 0.500000
vt 0.656250 1.000000
vt 0.656250 0.500000
vt 0.593750 1.000000
vt 0.593750 0.500000
vt 0.562500 1.000000
vt 0.562500 0.500000
vt 0.531250 1.000000
vt 0.531250 0.500000
vt 0.500000 1.000000
vt 0.500000 0.500000
vt 0.468750 1.000000
vt 0.468750 0.500000
vt 0.437500 1.000000
vt 0.437500 0.500000
vt 0.406250 1.000000
vt 0.406250 0.500000
vt 0.343750 1.000000
vt 0.343750 0.500000
vt 0.312500 1.000000
vt 0.312500 0.500000
vt 0.281250 1.000000
vt 0.281250 0.500000
vt 0.250000 1.000000
vt 0.250000 0.500000
vt 0.218750 1.000000
vt 0.218750 0.500000
vt 0.187500 1.000000
vt 0.187500 0.500000
vt 0.156250 1.000000
vt 0.156250 0.500000
vt 0.125000 1.000000
vt 0.093750 1.000000
vt 0.093750 0.500000
vt 0.062500 1.000000
vt 0.062500 0.500000
vt 0.296822 0.485388
vt 0.250000 0.490000
vt 0.203178 0.485388
vt 0.158156 0.471731
vt 0.116663 0.449553
vt 0.080294 0.419706
vt 0.050447 0.383337
vt 0.028269 0.341844
vt 0.014612 0.296822
vt 0.010000 0.250000
vt 0.014612 0.203178
vt 0.028269 0.158156
vt 0.050447 0.116663
vt 0.080294 0.080294
vt 0.116663 0.050447
vt 0.158156 0.028269
vt 0.203178 0.014612
vt 0.250000 0.010000
vt 0.296822 0.014612
vt 0.341844 0.028269
vt 0.383337 0.050447
vt 0.419706 0.080294
vt 0.449553 0.116663
vt 0.471731 0.158156
vt 0.485388 0.203178
vt 0.490000 0.250000
vt 0.485388 0.296822
vt 0.471731 0.341844
vt 0.449553 0.383337
vt 0.419706 0.419706
vt 0.383337 0.449553
vt 0.341844 0.471731
vt 0.031250 1.000000
vt 0.031250 0.500000
vt 0.000000 1.000000
vt 0.000000 0.500000
vt 0.750000 0.490000
vt 0.796822 0.485388
vt 0.841844 0.471731
vt 0.883337 0.449553
vt 0.919706 0.419706
vt 0.949553 0.383337
vt 0.971731 0.341844
vt 0.985388 0.296822
vt 0.990000 0.250000
vt 0.985388 0.203178
vt 0.971731 0.158156
vt 0.949553 0.116663
vt 0.919706 0.080294
vt 0.883337 0.050447
vt 0.841844 0.028269
vt 0.796822 0.014612
vt 0.750000 0.010000
vt 0.703178 0.014612
vt 0.658156 0.028269
vt 0.616663 0.050447
vt 0.580294 0.080294
vt 0.550447 0.116663
vt 0.528269 0.158156
vt 0.514612 0.203178
vt 0.510000 0.250000
vt 0.514612 0.296822
vt 0.528269 0.341844
vt 0.550447 0.383337
vt 0.580294 0.419706
vt 0.616663 0.449553
vt 0.658156 0.471731
vt 0.703178 0.485388
vt 0.181819 0.000000
vt 0.227273 0.078731
vt 0.136365 0.078731
vt 0.272728 0.157461
vt 0.318182 0.078731
vt 0.363637 0.157461
vt 0.909091 0.000000
vt 0.954545 0.078731
vt 0.863636 0.078731
vt 0.727273 0.000000
vt 0.772727 0.078731
vt 0.681818 0.078731
vt 0.545455 0.000000
vt 0.590909 0.078731
vt 0.500000 0.078731
vt 0.318182 0.236191
vt 0.090910 0.157461
vt 0.181819 0.157461
vt 0.136365 0.236191
vt 0.818182 0.157461
vt 0.909091 0.157461
vt 0.863636 0.236191
vt 0.636364 0.157461
vt 0.727273 0.157461
vt 0.681818 0.236191
vt 0.454546 0.157461
vt 0.545455 0.157461
vt 0.500000 0.236191
vt 0.227273 0.236191
vt 0.045455 0.236191
vt 0.772727 0.236191
vt 0.590909 0.236191
vt 0.409092 0.236191
vt 0.181819 0.314921
vt 0.272728 0.314921
vt 0.227273 0.393651
vt 0.000000 0.314921
vt 0.090910 0.314921
vt 0.045455 0.393651
vt 0.727273 0.314921
vt 0.818182 0.314921
vt 0.772727 0.393651
vt 0.545455 0.314921
vt 0.636364 0.314921
vt 0.590909 0.393651
vt 0.363637 0.314921
vt 0.454546 0.314921
vt 0.409092 0.393651
vt 0.500000 0.393651
vt 0.454546 0.472382
vt 0.681818 0.393651
vt 0.636364 0.472382
vt 0.863636 0.393651
vt 0.818182 0.472382
vt 0.909091 0.314921
vt 0.136365 0.393651
vt 0.090910 0.472382
vt 0.318182 0.393651
vt 0.272728 0.472382
vt 0.954545 0.236191
vt 1.000000 0.157461
vt 0.409092 0.078731
vt 0.363637 0.000000
vt 0.000000 0.000000
s 0
usemtl PotMat
f 5/1/1 7/2/1 10/2/1 12/1/1
f 4/3/2 3/4/2 7/5/2 8/6/2
f 8/7/3 7/2/3 5/1/3 6/8/3
f 6/9/4 2/10/4 4/3/4 8/11/4
f 2/10/5 1/12/5 3/4/5 4/3/5
f 6/8/6 5/1/6 1/12/6 2/10/6
f 3/4/1 1/12/1 11/12/1 9/4/1
f 1/12/1 5/1/1 12/1/1 11/12/1
f 7/5/1 3/4/1 9/4/1 10/5/1
f 22/14/5 24/13/5 20/202/5 18/202/5
f 22/14/6 18/202/6 17/202/6 21/4/6
f 21/4/3 17/202/3 19/202/3 23/12/3
f 23/12/2 19/202/2 20/202/2 24/13/2
usemtl DirtMat
f 23/12/1 24/13/1 22/14/1 21/4/1
usemtl StemMat
f 25/15/7 26/16/7 28/17/7 27/18/7
f 27/18/8 28/17/8 30/19/8 29/20/8
f 29/20/9 30/19/9 32/21/9 31/22/9
f 31/22/10 32/21/10 34/23/10 33/13/10
f 33/13/11 34/23/11 36/24/11 35/25/11
f 35/25/12 36/24/12 38/26/12 37/27/12
f 37/27/13 38/26/13 40/28/13 39/29/13
f 39/29/14 40/28/14 42/30/14 41/31/14
f 41/31/15 42/30/15 44/32/15 43/33/15
f 43/33/16 44/32/16 46/34/16 45/35/16
f 45/35/17 46/34/17 48/36/17 47/37/17
f 47/37/18 48/36/18 50/5/18 49/12/18
f 49/12/19 50/5/19 52/38/19 51/39/19
f 51/39/20 52/38/20 54/40/20 53/41/20
f 53/41/21 54/40/21 56/42/21 55/43/21
f 55/43/22 56/42/22 58/44/22 57/45/22
f 57/45/23 58/44/23 60/46/23 59/47/23
f 59/47/24 60/46/24 62/48/24 61/49/24
f 61/49/25 62/48/25 64/50/25 63/51/25
f 63/51/26 64/50/26 66/6/26 65/10/26
f 65/10/27 66/6/27 68/52/27 67/53/27
f 67/53/28 68/52/28 70/54/28 69/55/28
f 69/55/29 70/54/29 72/56/29 71/57/29
f 71/57/30 72/56/30 74/58/30 73/59/30
f 73/59/31 74/58/31 76/60/31 75/61/31
f 75/61/32 76/60/32 78/62/32 77/63/32
f 77/63/33 78/62/33 80/64/33 79/65/33
f 79/65/34 80/64/34 82/66/34 81/9/34
f 81/9/35 82/66/35 84/67/35 83/68/35
f 83/68/36 84/67/36 86/69/36 85/70/36
f 28/71/1 26/72/1 88/73/1 86/74/1 84/75/1 82/76/1 80/77/1 78/78/1 76/79/1 74/80/1 72/81/1 70/82/1 68/83/1 66/84/1 64/85/1 62/86/1 60/87/1 58/88/1 56/89/1 54/90/1 52/91/1 50/92/1 48/93/1 46/94/1 44/95/1 42/96/1 40/97/1 38/98/1 36/99/1 34/100/1 32/101/1 30/102/1
f 85/70/37 86/69/37 88/103/37 87/104/37
f 87/104/38 88/103/38 26/105/38 25/106/38
f 25/107/4 27/108/4 29/109/4 31/110/4 33/111/4 35/112/4 37/113/4 39/114/4 41/115/4 43/116/4 45/117/4 47/118/4 49/119/4 51/120/4 53/121/4 55/122/4 57/123/4 59/124/4 61/125/4 63/126/4 65/127/4 67/128/4 69/129/4 71/130/4 73/131/4 75/132/4 77/133/4 79/134/4 81/135/4 83/136/4 85/137/4 87/138/4
usemtl PlantMat
f 89/139/39 102/140/39 101/141/39
f 90/142/40 102/143/40 104/144/40
f 89/145/41 101/146/41 106/147/41
f 89/148/42 106/149/42 108/150/42
f 89/151/43 108/152/43 105/153/43
f 90/142/44 104/144/44 111/154/44
f 91/155/45 103/156/45 113/157/45
f 92/158/46 107/159/46 115/160/46
f 93/161/47 109/162/47 117/163/47
f 94/164/48 110/165/48 119/166/48
f 90/142/49 111/154/49 114/167/49
f 91/155/50 113/157/50 116/168/50
f 92/158/51 115/160/51 118/169/51
f 93/161/52 117/163/52 120/170/52
f 94/164/53 119/166/53 112/171/53
f 95/172/54 121/173/54 126/174/54
f 96/175/55 122/176/55 128/177/55
f 97/178/56 123/179/56 129/180/56
f 98/181/57 124/182/57 130/183/57
f 99/184/58 125/185/58 127/186/58
f 127/186/59 130/187/59 100/188/59
f 127/186/60 125/185/60 130/187/60
f 125/185/61 98/181/61 130/187/61
f 130/183/62 129/189/62 100/190/62
f 130/183/63 124/182/63 129/189/63
f 124/182/64 97/178/64 129/189/64
f 129/180/65 128/191/65 100/192/65
f 129/180/66 123/179/66 128/191/66
f 123/179/67 96/193/67 128/191/67
f 128/177/68 126/194/68 100/195/68
f 128/177/69 122/176/69 126/194/69
f 122/176/70 95/172/70 126/194/70
f 126/174/71 127/196/71 100/197/71
f 126/174/72 121/173/72 127/196/72
f 121/173/73 99/184/73 127/196/73
f 112/171/74 125/185/74 99/184/74
f 112/171/75 119/166/75 125/185/75
f 119/166/76 98/181/76 125/185/76
f 120/170/77 124/182/77 98/181/77
f 120/170/78 117/163/78 124/182/78
f 117/163/79 97/178/79 124/182/79
f 118/169/80 123/179/80 97/178/80
f 118/169/81 115/160/81 123/179/81
f 115/160/82 96/193/82 123/179/82
f 116/168/83 122/176/83 96/175/83
f 116/168/84 113/157/84 122/176/84
f 113/157/85 95/172/85 122/176/85
f 114/167/86 121/173/86 95/172/86
f 114/167/87 111/154/87 121/173/87
f 111/154/88 99/184/88 121/173/88
f 119/166/89 120/170/89 98/181/89
f 119/166/90 110/165/90 120/170/90
f 110/165/91 93/161/91 120/170/91
f 117/163/92 118/169/92 97/178/92
f 117/163/93 109/162/93 118/169/93
f 109/162/94 92/158/94 118/169/94
f 115/160/95 116/198/95 96/193/95
f 115/160/96 107/159/96 116/198/96
f 107/159/97 91/199/97 116/198/97
f 113/157/98 114/167/98 95/172/98
f 113/157/99 103/156/99 114/167/99
f 103/156/100 90/142/100 114/167/100
f 111/154/101 112/171/101 99/184/101
f 111/154/102 104/144/102 112/171/102
f 104/144/103 94/164/103 112/171/103
f 105/153/104 110/165/104 94/164/104
f 105/153/105 108/152/105 110/165/105
f 108/152/106 93/161/106 110/165/106
f 108/150/107 109/162/107 93/161/107
f 108/150/108 106/149/108 109/162/108
f 106/149/109 92/158/109 109/162/109
f 106/147/110 107/159/110 92/158/110
f 106/147/111 101/146/111 107/159/111
f 101/146/112 91/199/112 107/159/112
f 104/144/113 105/200/113 94/164/113
f 104/144/114 102/143/114 105/200/114
f 102/143/115 89/201/115 105/200/115
f 101/141/116 103/156/116 91/155/116
f 101/141/117 102/140/117 103/156/117
f 102/140/118 90/142/118 103/156/118
l 12 16
l 15 11
l 13 9
l 10 14
l 14 18
l 20 16
l 13 17
l 19 15
